# MagicaVoxel @ Ephtracy

# group
o 

# material
mtllib Korol.mtl
usemtl palette

# normals
vn -1 0 0
vn 1 0 0
vn 0 0 1
vn 0 0 -1
vn 0 -1 0
vn 0 1 0

# texcoords
vt 0.0214844 0.5
vt 0.669922 0.5
vt 0.673828 0.5
vt 0.677734 0.5
vt 0.994141 0.5

# verts
v -0.3 0.3 0.1
v -0.3 0.3 0
v -0.3 0.5 0.1
v -0.3 0.5 0
v -0.2 0 0.1
v -0.2 0 0
v -0.2 0 -0.2
v -0.2 0 -0.4
v -0.2 0.1 0.2
v -0.2 0.1 0.1
v -0.2 0.1 0
v -0.2 0.1 -0.2
v -0.2 0.1 -0.3
v -0.2 0.1 -0.4
v -0.2 0.2 -0.1
v -0.2 0.2 -0.3
v -0.2 0.3 0.1
v -0.2 0.3 0
v -0.2 0.5 0.2
v -0.2 0.5 0.1
v -0.2 0.5 0
v -0.2 0.6 0.2
v -0.2 0.6 0.1
v -0.2 0.6 0
v -0.2 0.6 -0.1
v -0.2 0.7 0.3
v -0.2 0.7 0.2
v -0.2 0.7 0.1
v -0.2 0.8 0.3
v -0.2 0.8 0.2
v -0.2 0.8 0.1
v -0.2 0.9 0.2
v -0.2 0.9 0
v -0.2 1 0.2
v -0.2 1 0.1
v -0.2 1.1 0.1
v -0.2 1.1 0
v -0.1 0 -0.4
v -0.1 0 -0.6
v -0.1 0.1 -0.3
v -0.1 0.1 -0.4
v -0.1 0.1 -0.6
v -0.1 0.2 0.3
v -0.1 0.2 0.2
v -0.1 0.2 -0.1
v -0.1 0.2 -0.3
v -0.1 0.2 -0.4
v -0.1 0.3 -0.2
v -0.1 0.3 -0.3
v -0.1 0.5 0.3
v -0.1 0.5 0.2
v -0.1 0.5 0.1
v -0.1 0.5 -0.1
v -0.1 0.5 -0.2
v -0.1 0.6 0.4
v -0.1 0.6 0.2
v -0.1 0.6 0.1
v -0.1 0.6 0
v -0.1 0.6 -0.1
v -0.1 0.7 0.5
v -0.1 0.7 0.4
v -0.1 0.7 0.3
v -0.1 0.7 0.2
v -0.1 0.8 0.5
v -0.1 0.8 0.3
v -0.1 0.8 0.2
v -0.1 0.8 0
v -0.1 0.8 -0.1
v -0.1 0.9 0.3
v -0.1 0.9 0.2
v -0.1 0.9 0
v -0.1 0.9 -0.1
v -0.1 1 0.2
v -0.1 1 0
v -0.1 1 -0.1
v -0.1 1.1 0.3
v -0.1 1.1 0.2
v 0 1 0
v 0 1 -0.1
v 0 1.1 0
v 0 1.1 -0.1
v 0.1 0 0.1
v 0.1 0 0
v 0.1 0.1 0.1
v 0.1 0.1 0
v 0.1 0.9 0.2
v 0.1 0.9 0
v 0.1 1 0.2
v 0.1 1 0.1
v 0.1 1 0
v 0.1 1.1 0.2
v 0.1 1.1 0.1
v -0.1 0 0.1
v -0.1 0 0
v -0.1 0.1 0.1
v -0.1 0.1 0
v -0.1 0.9 0.2
v -0.1 0.9 0
v -0.1 1 0.2
v -0.1 1 0.1
v -0.1 1 0
v -0.1 1.1 0.1
v -0.1 1.1 0
v 0 1 0.3
v 0 1 0.2
v 0 1.1 0.3
v 0 1.1 0.2
v 0.1 0 -0.4
v 0.1 0 -0.6
v 0.1 0.1 -0.3
v 0.1 0.1 -0.4
v 0.1 0.1 -0.6
v 0.1 0.2 0.3
v 0.1 0.2 0.2
v 0.1 0.2 -0.1
v 0.1 0.2 -0.3
v 0.1 0.2 -0.4
v 0.1 0.3 -0.2
v 0.1 0.3 -0.3
v 0.1 0.5 0.3
v 0.1 0.5 0.2
v 0.1 0.5 0.1
v 0.1 0.5 -0.1
v 0.1 0.5 -0.2
v 0.1 0.6 0.4
v 0.1 0.6 0.2
v 0.1 0.6 0.1
v 0.1 0.6 0
v 0.1 0.6 -0.1
v 0.1 0.7 0.5
v 0.1 0.7 0.4
v 0.1 0.7 0.3
v 0.1 0.7 0.2
v 0.1 0.8 0.5
v 0.1 0.8 0.3
v 0.1 0.8 0.2
v 0.1 0.8 0
v 0.1 0.8 -0.1
v 0.1 0.9 0.3
v 0.1 0.9 0.2
v 0.1 0.9 0
v 0.1 0.9 -0.1
v 0.1 1 0.3
v 0.1 1 0.2
v 0.1 1 0
v 0.1 1.1 0
v 0.1 1.1 -0.1
v 0.2 0 0.1
v 0.2 0 0
v 0.2 0 -0.2
v 0.2 0 -0.4
v 0.2 0.1 0.2
v 0.2 0.1 0.1
v 0.2 0.1 0
v 0.2 0.1 -0.2
v 0.2 0.1 -0.3
v 0.2 0.1 -0.4
v 0.2 0.2 -0.1
v 0.2 0.2 -0.3
v 0.2 0.3 0.1
v 0.2 0.3 0
v 0.2 0.5 0.2
v 0.2 0.5 0.1
v 0.2 0.5 0
v 0.2 0.6 0.2
v 0.2 0.6 0.1
v 0.2 0.6 0
v 0.2 0.6 -0.1
v 0.2 0.7 0.3
v 0.2 0.7 0.2
v 0.2 0.7 0.1
v 0.2 0.8 0.3
v 0.2 0.8 0.2
v 0.2 0.8 0.1
v 0.2 0.9 0.2
v 0.2 0.9 0
v 0.2 1 0.1
v 0.2 1 0
v 0.2 1.1 0.2
v 0.2 1.1 0.1
v 0.3 0.3 0.1
v 0.3 0.3 0
v 0.3 0.5 0.1
v 0.3 0.5 0
v -0.1 0.7 0.5
v -0.1 0.8 0.5
v 0.1 0.7 0.5
v 0.1 0.8 0.5
v -0.1 0.6 0.4
v -0.1 0.7 0.4
v 0.1 0.6 0.4
v 0.1 0.7 0.4
v -0.2 0.7 0.3
v -0.2 0.8 0.3
v -0.1 0.2 0.3
v -0.1 0.5 0.3
v -0.1 0.7 0.3
v -0.1 0.8 0.3
v -0.1 0.9 0.3
v -0.1 1.1 0.3
v 0 1 0.3
v 0 1.1 0.3
v 0.1 0.2 0.3
v 0.1 0.5 0.3
v 0.1 0.7 0.3
v 0.1 0.8 0.3
v 0.1 0.9 0.3
v 0.1 1 0.3
v 0.2 0.7 0.3
v 0.2 0.8 0.3
v -0.2 0.1 0.2
v -0.2 0.5 0.2
v -0.2 0.6 0.2
v -0.2 0.7 0.2
v -0.2 0.8 0.2
v -0.2 0.9 0.2
v -0.2 1 0.2
v -0.1 0.2 0.2
v -0.1 0.5 0.2
v -0.1 0.6 0.2
v -0.1 0.7 0.2
v -0.1 0.8 0.2
v -0.1 0.9 0.2
v -0.1 1 0.2
v 0.1 0.2 0.2
v 0.1 0.5 0.2
v 0.1 0.6 0.2
v 0.1 0.7 0.2
v 0.1 0.8 0.2
v 0.1 0.9 0.2
v 0.1 1 0.2
v 0.1 1.1 0.2
v 0.2 0.1 0.2
v 0.2 0.5 0.2
v 0.2 0.6 0.2
v 0.2 0.7 0.2
v 0.2 0.8 0.2
v 0.2 0.9 0.2
v 0.2 1.1 0.2
v -0.3 0.3 0.1
v -0.3 0.5 0.1
v -0.2 0 0.1
v -0.2 0.1 0.1
v -0.2 0.3 0.1
v -0.2 0.5 0.1
v -0.2 0.6 0.1
v -0.2 1 0.1
v -0.2 1.1 0.1
v -0.1 0 0.1
v -0.1 0.1 0.1
v -0.1 0.5 0.1
v -0.1 0.6 0.1
v -0.1 1 0.1
v -0.1 1.1 0.1
v 0.1 0 0.1
v 0.1 0.1 0.1
v 0.1 0.5 0.1
v 0.1 0.6 0.1
v 0.2 0 0.1
v 0.2 0.1 0.1
v 0.2 0.3 0.1
v 0.2 0.5 0.1
v 0.2 0.6 0.1
v 0.3 0.3 0.1
v 0.3 0.5 0.1
v -0.1 0.9 0
v -0.1 1 0
v 0 1 0
v 0 1.1 0
v 0.1 0.9 0
v 0.1 1 0
v 0.1 1.1 0
v -0.2 0 -0.2
v -0.2 0.1 -0.2
v 0.2 0 -0.2
v 0.2 0.1 -0.2
v -0.1 0.9 0.2
v -0.1 1 0.2
v -0.1 1.1 0.2
v 0 1 0.2
v 0 1.1 0.2
v 0.1 0.9 0.2
v 0.1 1 0.2
v 0.1 1 0.1
v 0.1 1.1 0.1
v 0.2 1 0.1
v 0.2 1.1 0.1
v -0.3 0.3 0
v -0.3 0.5 0
v -0.2 0 0
v -0.2 0.1 0
v -0.2 0.3 0
v -0.2 0.5 0
v -0.2 0.6 0
v -0.2 0.9 0
v -0.2 1.1 0
v -0.1 0 0
v -0.1 0.1 0
v -0.1 0.6 0
v -0.1 0.8 0
v -0.1 0.9 0
v -0.1 1 0
v -0.1 1.1 0
v 0.1 0 0
v 0.1 0.1 0
v 0.1 0.6 0
v 0.1 0.8 0
v 0.1 0.9 0
v 0.1 1 0
v 0.2 0 0
v 0.2 0.1 0
v 0.2 0.3 0
v 0.2 0.5 0
v 0.2 0.6 0
v 0.2 0.9 0
v 0.2 1 0
v 0.3 0.3 0
v 0.3 0.5 0
v -0.2 0.2 -0.1
v -0.2 0.6 -0.1
v -0.1 0.2 -0.1
v -0.1 0.5 -0.1
v -0.1 0.6 -0.1
v -0.1 0.8 -0.1
v -0.1 0.9 -0.1
v -0.1 1 -0.1
v 0 1 -0.1
v 0 1.1 -0.1
v 0.1 0.2 -0.1
v 0.1 0.5 -0.1
v 0.1 0.6 -0.1
v 0.1 0.8 -0.1
v 0.1 0.9 -0.1
v 0.1 1.1 -0.1
v 0.2 0.2 -0.1
v 0.2 0.6 -0.1
v -0.1 0.3 -0.2
v -0.1 0.5 -0.2
v 0.1 0.3 -0.2
v 0.1 0.5 -0.2
v -0.2 0.1 -0.3
v -0.2 0.2 -0.3
v -0.1 0.1 -0.3
v -0.1 0.2 -0.3
v -0.1 0.3 -0.3
v 0.1 0.1 -0.3
v 0.1 0.2 -0.3
v 0.1 0.3 -0.3
v 0.2 0.1 -0.3
v 0.2 0.2 -0.3
v -0.2 0 -0.4
v -0.2 0.1 -0.4
v -0.1 0 -0.4
v -0.1 0.1 -0.4
v -0.1 0.2 -0.4
v 0.1 0 -0.4
v 0.1 0.1 -0.4
v 0.1 0.2 -0.4
v 0.2 0 -0.4
v 0.2 0.1 -0.4
v -0.1 0 -0.6
v -0.1 0.1 -0.6
v 0.1 0 -0.6
v 0.1 0.1 -0.6
v -0.2 0 0.1
v -0.1 0 0.1
v 0.1 0 0.1
v 0.2 0 0.1
v -0.2 0 0
v -0.1 0 0
v 0.1 0 0
v 0.2 0 0
v -0.2 0 -0.2
v 0.2 0 -0.2
v -0.1 0 -0.3
v 0 0 -0.3
v -0.2 0 -0.4
v -0.1 0 -0.4
v 0 0 -0.4
v 0.1 0 -0.4
v 0.2 0 -0.4
v -0.1 0 -0.6
v 0.1 0 -0.6
v -0.2 0.1 0.2
v 0.2 0.1 0.2
v -0.2 0.1 0.1
v -0.1 0.1 0.1
v 0.1 0.1 0.1
v 0.2 0.1 0.1
v -0.2 0.1 0
v -0.1 0.1 0
v 0.1 0.1 0
v 0.2 0.1 0
v -0.2 0.1 -0.2
v 0.2 0.1 -0.2
v -0.1 0.2 0.3
v 0.1 0.2 0.3
v -0.1 0.2 0.2
v 0.1 0.2 0.2
v -0.3 0.3 0.1
v -0.2 0.3 0.1
v 0.2 0.3 0.1
v 0.3 0.3 0.1
v -0.3 0.3 0
v -0.2 0.3 0
v 0.2 0.3 0
v 0.3 0.3 0
v -0.1 0.6 0.4
v 0.1 0.6 0.4
v -0.2 0.6 0.2
v -0.1 0.6 0.2
v 0.1 0.6 0.2
v 0.2 0.6 0.2
v -0.2 0.6 0.1
v -0.1 0.6 0.1
v 0.1 0.6 0.1
v 0.2 0.6 0.1
v -0.1 0.7 0.5
v 0.1 0.7 0.5
v -0.1 0.7 0.4
v 0.1 0.7 0.4
v -0.2 0.7 0.3
v -0.1 0.7 0.3
v 0.1 0.7 0.3
v 0.2 0.7 0.3
v -0.2 0.7 0.2
v -0.1 0.7 0.2
v 0.1 0.7 0.2
v 0.2 0.7 0.2
v -0.1 0.9 0
v 0.1 0.9 0
v -0.1 0.9 -0.1
v 0.1 0.9 -0.1
v -0.2 0.1 -0.3
v -0.1 0.1 -0.3
v 0.1 0.1 -0.3
v 0.2 0.1 -0.3
v -0.2 0.1 -0.4
v -0.1 0.1 -0.4
v 0.1 0.1 -0.4
v 0.2 0.1 -0.4
v -0.1 0.1 -0.6
v 0.1 0.1 -0.6
v -0.2 0.2 -0.1
v -0.1 0.2 -0.1
v 0.1 0.2 -0.1
v 0.2 0.2 -0.1
v -0.2 0.2 -0.3
v -0.1 0.2 -0.3
v 0.1 0.2 -0.3
v 0.2 0.2 -0.3
v -0.1 0.2 -0.4
v 0.1 0.2 -0.4
v -0.1 0.3 -0.2
v 0.1 0.3 -0.2
v -0.1 0.3 -0.3
v 0.1 0.3 -0.3
v -0.1 0.5 0.3
v 0.1 0.5 0.3
v -0.2 0.5 0.2
v -0.1 0.5 0.2
v 0.1 0.5 0.2
v 0.2 0.5 0.2
v -0.3 0.5 0.1
v -0.2 0.5 0.1
v -0.1 0.5 0.1
v 0.1 0.5 0.1
v 0.2 0.5 0.1
v 0.3 0.5 0.1
v -0.3 0.5 0
v -0.2 0.5 0
v 0.2 0.5 0
v 0.3 0.5 0
v -0.1 0.5 -0.1
v 0.1 0.5 -0.1
v -0.1 0.5 -0.2
v 0.1 0.5 -0.2
v -0.2 0.6 0
v -0.1 0.6 0
v 0.1 0.6 0
v 0.2 0.6 0
v -0.2 0.6 -0.1
v -0.1 0.6 -0.1
v 0.1 0.6 -0.1
v 0.2 0.6 -0.1
v -0.1 0.8 0.5
v 0.1 0.8 0.5
v -0.2 0.8 0.3
v -0.1 0.8 0.3
v 0.1 0.8 0.3
v 0.2 0.8 0.3
v -0.2 0.8 0.2
v -0.1 0.8 0.2
v 0.1 0.8 0.2
v 0.2 0.8 0.2
v -0.1 0.8 0
v 0.1 0.8 0
v -0.1 0.8 -0.1
v 0.1 0.8 -0.1
v -0.1 0.9 0.2
v 0.1 0.9 0.2
v -0.1 0.9 0
v 0.1 0.9 0
v 0 1 0.3
v 0.1 1 0.3
v -0.2 1 0.2
v -0.1 1 0.2
v 0 1 0.2
v 0.1 1 0.2
v -0.2 1 0.1
v -0.1 1 0.1
v 0.1 1 0.1
v 0.2 1 0.1
v -0.1 1 0
v 0 1 0
v 0.1 1 0
v 0.2 1 0
v -0.1 1 -0.1
v 0 1 -0.1
v -0.1 1.1 0.3
v 0 1.1 0.3
v -0.1 1.1 0.2
v 0 1.1 0.2
v 0.1 1.1 0.2
v 0.2 1.1 0.2
v -0.2 1.1 0.1
v -0.1 1.1 0.1
v 0.1 1.1 0.1
v 0.2 1.1 0.1
v -0.2 1.1 0
v -0.1 1.1 0
v 0 1.1 0
v 0.1 1.1 0
v 0 1.1 -0.1
v 0.1 1.1 -0.1

# faces
f 3/4/1 2/4/1 1/4/1
f 4/4/1 2/4/1 3/4/1
f 10/4/1 6/4/1 5/4/1
f 11/4/1 6/4/1 10/4/1
f 12/4/1 8/4/1 7/4/1
f 13/4/1 8/4/1 12/4/1
f 14/4/1 8/4/1 13/4/1
f 15/4/1 11/4/1 10/4/1
f 15/4/1 10/4/1 9/4/1
f 15/4/1 13/4/1 12/4/1
f 15/4/1 12/4/1 11/4/1
f 16/4/1 13/4/1 15/4/1
f 17/4/1 15/4/1 9/4/1
f 18/4/1 15/4/1 17/4/1
f 19/4/1 17/4/1 9/4/1
f 20/4/1 17/4/1 19/4/1
f 21/4/1 15/4/1 18/4/1
f 23/4/1 21/4/1 20/4/1
f 24/4/1 15/4/1 21/4/1
f 24/4/1 21/4/1 23/4/1
f 25/4/1 15/4/1 24/4/1
f 27/4/1 23/4/1 22/4/1
f 27/4/1 24/4/1 23/4/1
f 28/4/1 24/4/1 27/4/1
f 29/4/1 27/4/1 26/4/1
f 30/5/1 28/5/1 27/5/1
f 30/4/1 27/4/1 29/4/1
f 31/4/1 24/4/1 28/4/1
f 31/5/1 28/5/1 30/5/1
f 32/4/1 31/4/1 30/4/1
f 33/4/1 24/4/1 31/4/1
f 33/4/1 31/4/1 32/4/1
f 34/1/1 33/1/1 32/1/1
f 35/1/1 33/1/1 34/1/1
f 36/1/1 33/1/1 35/1/1
f 37/1/1 33/1/1 36/1/1
f 41/2/1 39/2/1 38/2/1
f 42/2/1 39/2/1 41/2/1
f 46/2/1 41/2/1 40/2/1
f 47/2/1 41/2/1 46/2/1
f 48/2/1 46/2/1 45/2/1
f 49/2/1 46/2/1 48/2/1
f 50/3/1 44/3/1 43/3/1
f 51/3/1 44/3/1 50/3/1
f 53/2/1 48/2/1 45/2/1
f 54/2/1 48/2/1 53/2/1
f 56/4/1 52/4/1 51/4/1
f 57/4/1 52/4/1 56/4/1
f 61/4/1 56/4/1 55/4/1
f 62/4/1 56/4/1 61/4/1
f 63/4/1 56/4/1 62/4/1
f 64/4/1 61/4/1 60/4/1
f 64/4/1 62/4/1 61/4/1
f 65/4/1 62/4/1 64/4/1
f 67/2/1 59/2/1 58/2/1
f 68/2/1 59/2/1 67/2/1
f 69/4/1 66/4/1 65/4/1
f 70/4/1 66/4/1 69/4/1
f 73/1/1 70/1/1 69/1/1
f 74/1/1 72/1/1 71/1/1
f 75/1/1 72/1/1 74/1/1
f 76/1/1 73/1/1 69/1/1
f 77/1/1 73/1/1 76/1/1
f 80/1/1 79/1/1 78/1/1
f 81/1/1 79/1/1 80/1/1
f 84/4/1 83/4/1 82/4/1
f 85/4/1 83/4/1 84/4/1
f 88/1/1 87/1/1 86/1/1
f 89/1/1 87/1/1 88/1/1
f 90/1/1 87/1/1 89/1/1
f 91/1/1 89/1/1 88/1/1
f 92/1/1 89/1/1 91/1/1
f 93/4/2 94/4/2 95/4/2
f 95/4/2 94/4/2 96/4/2
f 97/1/2 98/1/2 99/1/2
f 99/1/2 98/1/2 100/1/2
f 100/1/2 98/1/2 101/1/2
f 100/1/2 101/1/2 102/1/2
f 102/1/2 101/1/2 103/1/2
f 104/1/2 105/1/2 106/1/2
f 106/1/2 105/1/2 107/1/2
f 108/2/2 109/2/2 111/2/2
f 111/2/2 109/2/2 112/2/2
f 110/2/2 111/2/2 116/2/2
f 116/2/2 111/2/2 117/2/2
f 115/2/2 116/2/2 118/2/2
f 118/2/2 116/2/2 119/2/2
f 113/3/2 114/3/2 120/3/2
f 120/3/2 114/3/2 121/3/2
f 115/2/2 118/2/2 123/2/2
f 123/2/2 118/2/2 124/2/2
f 121/4/2 122/4/2 126/4/2
f 126/4/2 122/4/2 127/4/2
f 125/4/2 126/4/2 131/4/2
f 131/4/2 126/4/2 132/4/2
f 132/4/2 126/4/2 133/4/2
f 130/4/2 131/4/2 134/4/2
f 131/4/2 132/4/2 134/4/2
f 134/4/2 132/4/2 135/4/2
f 128/2/2 129/2/2 137/2/2
f 137/2/2 129/2/2 138/2/2
f 135/4/2 136/4/2 139/4/2
f 139/4/2 136/4/2 140/4/2
f 139/1/2 140/1/2 143/1/2
f 143/1/2 140/1/2 144/1/2
f 141/1/2 142/1/2 145/1/2
f 145/1/2 142/1/2 146/1/2
f 146/1/2 142/1/2 147/1/2
f 148/4/2 149/4/2 153/4/2
f 153/4/2 149/4/2 154/4/2
f 150/4/2 151/4/2 155/4/2
f 155/4/2 151/4/2 156/4/2
f 156/4/2 151/4/2 157/4/2
f 153/4/2 154/4/2 158/4/2
f 152/4/2 153/4/2 158/4/2
f 155/4/2 156/4/2 158/4/2
f 154/4/2 155/4/2 158/4/2
f 158/4/2 156/4/2 159/4/2
f 152/4/2 158/4/2 160/4/2
f 160/4/2 158/4/2 161/4/2
f 152/4/2 160/4/2 162/4/2
f 162/4/2 160/4/2 163/4/2
f 161/4/2 158/4/2 164/4/2
f 163/4/2 164/4/2 166/4/2
f 164/4/2 158/4/2 167/4/2
f 166/4/2 164/4/2 167/4/2
f 167/4/2 158/4/2 168/4/2
f 165/4/2 166/4/2 170/4/2
f 166/4/2 167/4/2 170/4/2
f 170/4/2 167/4/2 171/4/2
f 169/4/2 170/4/2 172/4/2
f 170/5/2 171/5/2 173/5/2
f 172/4/2 170/4/2 173/4/2
f 171/4/2 167/4/2 174/4/2
f 173/5/2 171/5/2 174/5/2
f 173/4/2 174/4/2 175/4/2
f 174/4/2 167/4/2 176/4/2
f 175/4/2 174/4/2 176/4/2
f 175/1/2 176/1/2 177/1/2
f 177/1/2 176/1/2 178/1/2
f 175/1/2 177/1/2 179/1/2
f 179/1/2 177/1/2 180/1/2
f 181/4/2 182/4/2 183/4/2
f 183/4/2 182/4/2 184/4/2
f 187/4/3 186/4/3 185/4/3
f 188/4/3 186/4/3 187/4/3
f 191/4/3 190/4/3 189/4/3
f 192/4/3 190/4/3 191/4/3
f 197/4/3 194/4/3 193/4/3
f 198/4/3 194/4/3 197/4/3
f 201/1/3 200/1/3 199/1/3
f 202/1/3 200/1/3 201/1/3
f 203/3/3 196/3/3 195/3/3
f 204/3/3 196/3/3 203/3/3
f 206/4/3 199/4/3 198/4/3
f 207/1/3 201/1/3 199/1/3
f 207/4/3 199/4/3 206/4/3
f 208/1/3 201/1/3 207/1/3
f 209/4/3 206/4/3 205/4/3
f 210/4/3 206/4/3 209/4/3
f 218/4/3 212/4/3 211/4/3
f 219/4/3 212/4/3 218/4/3
f 220/4/3 214/4/3 213/4/3
f 221/4/3 214/4/3 220/4/3
f 222/4/3 216/4/3 215/4/3
f 223/1/3 217/1/3 216/1/3
f 223/4/3 216/4/3 222/4/3
f 224/1/3 217/1/3 223/1/3
f 225/4/3 218/4/3 211/4/3
f 226/4/3 220/4/3 219/4/3
f 227/4/3 220/4/3 226/4/3
f 233/4/3 225/4/3 211/4/3
f 233/4/3 226/4/3 225/4/3
f 234/4/3 226/4/3 233/4/3
f 235/4/3 228/4/3 227/4/3
f 236/4/3 228/4/3 235/4/3
f 237/4/3 230/4/3 229/4/3
f 238/1/3 231/1/3 230/1/3
f 238/4/3 230/4/3 237/4/3
f 238/1/3 232/1/3 231/1/3
f 239/1/3 232/1/3 238/1/3
f 244/4/3 241/4/3 240/4/3
f 245/4/3 241/4/3 244/4/3
f 249/4/3 243/4/3 242/4/3
f 250/4/3 243/4/3 249/4/3
f 251/4/3 246/4/3 245/4/3
f 252/4/3 246/4/3 251/4/3
f 253/1/3 248/1/3 247/1/3
f 254/1/3 248/1/3 253/1/3
f 259/4/3 256/4/3 255/4/3
f 260/4/3 256/4/3 259/4/3
f 262/4/3 258/4/3 257/4/3
f 263/4/3 258/4/3 262/4/3
f 264/4/3 262/4/3 261/4/3
f 265/4/3 262/4/3 264/4/3
f 268/1/3 267/1/3 266/1/3
f 270/1/3 268/1/3 266/1/3
f 270/1/3 269/1/3 268/1/3
f 271/1/3 269/1/3 270/1/3
f 272/1/3 269/1/3 271/1/3
f 275/4/3 274/4/3 273/4/3
f 276/4/3 274/4/3 275/4/3
f 277/1/4 278/1/4 280/1/4
f 278/1/4 279/1/4 280/1/4
f 280/1/4 279/1/4 281/1/4
f 277/1/4 280/1/4 282/1/4
f 282/1/4 280/1/4 283/1/4
f 284/1/4 285/1/4 286/1/4
f 286/1/4 285/1/4 287/1/4
f 288/4/4 289/4/4 292/4/4
f 292/4/4 289/4/4 293/4/4
f 290/4/4 291/4/4 297/4/4
f 297/4/4 291/4/4 298/4/4
f 294/4/4 295/4/4 299/4/4
f 299/4/4 295/4/4 300/4/4
f 295/1/4 296/1/4 301/1/4
f 300/4/4 295/4/4 301/4/4
f 301/1/4 296/1/4 302/1/4
f 302/1/4 296/1/4 303/1/4
f 300/4/4 301/4/4 307/4/4
f 307/4/4 301/4/4 308/4/4
f 304/4/4 305/4/4 310/4/4
f 310/4/4 305/4/4 311/4/4
f 306/4/4 307/4/4 314/4/4
f 307/4/4 308/4/4 314/4/4
f 308/1/4 309/1/4 315/1/4
f 314/4/4 308/4/4 315/4/4
f 315/1/4 309/1/4 316/1/4
f 312/4/4 313/4/4 317/4/4
f 317/4/4 313/4/4 318/4/4
f 319/4/4 320/4/4 321/4/4
f 321/4/4 320/4/4 322/4/4
f 322/4/4 320/4/4 323/4/4
f 325/1/4 326/1/4 327/1/4
f 323/2/4 324/2/4 330/2/4
f 322/2/4 323/2/4 330/2/4
f 330/2/4 324/2/4 331/2/4
f 331/2/4 324/2/4 332/2/4
f 327/1/4 328/1/4 333/1/4
f 325/1/4 327/1/4 333/1/4
f 333/1/4 328/1/4 334/1/4
f 330/4/4 331/4/4 335/4/4
f 329/4/4 330/4/4 335/4/4
f 335/4/4 331/4/4 336/4/4
f 337/2/4 338/2/4 339/2/4
f 339/2/4 338/2/4 340/2/4
f 341/4/4 342/4/4 343/4/4
f 343/4/4 342/4/4 344/4/4
f 344/2/4 345/2/4 347/2/4
f 347/2/4 345/2/4 348/2/4
f 346/4/4 347/4/4 349/4/4
f 349/4/4 347/4/4 350/4/4
f 351/4/4 352/4/4 353/4/4
f 353/4/4 352/4/4 354/4/4
f 354/2/4 355/2/4 357/2/4
f 357/2/4 355/2/4 358/2/4
f 356/4/4 357/4/4 359/4/4
f 359/4/4 357/4/4 360/4/4
f 361/2/4 362/2/4 363/2/4
f 363/2/4 362/2/4 364/2/4
f 369/4/5 366/4/5 365/4/5
f 370/4/5 366/4/5 369/4/5
f 371/4/5 368/4/5 367/4/5
f 372/4/5 368/4/5 371/4/5
f 375/4/5 374/4/5 373/4/5
f 376/4/5 374/4/5 375/4/5
f 377/4/5 375/4/5 373/4/5
f 378/2/5 376/2/5 375/2/5
f 378/4/5 375/4/5 377/4/5
f 379/4/5 374/4/5 376/4/5
f 379/2/5 376/2/5 378/2/5
f 380/4/5 374/4/5 379/4/5
f 381/4/5 374/4/5 380/4/5
f 382/2/5 379/2/5 378/2/5
f 382/2/5 380/2/5 379/2/5
f 383/2/5 380/2/5 382/2/5
f 386/4/5 385/4/5 384/4/5
f 387/4/5 385/4/5 386/4/5
f 388/4/5 385/4/5 387/4/5
f 389/4/5 385/4/5 388/4/5
f 391/4/5 388/4/5 387/4/5
f 392/4/5 388/4/5 391/4/5
f 394/4/5 391/4/5 390/4/5
f 394/4/5 393/4/5 392/4/5
f 394/4/5 392/4/5 391/4/5
f 395/4/5 393/4/5 394/4/5
f 398/3/5 397/3/5 396/3/5
f 399/3/5 397/3/5 398/3/5
f 404/4/5 401/4/5 400/4/5
f 405/4/5 401/4/5 404/4/5
f 406/4/5 403/4/5 402/4/5
f 407/4/5 403/4/5 406/4/5
f 411/4/5 409/4/5 408/4/5
f 412/4/5 409/4/5 411/4/5
f 414/4/5 411/4/5 410/4/5
f 415/4/5 411/4/5 414/4/5
f 416/4/5 413/4/5 412/4/5
f 417/4/5 413/4/5 416/4/5
f 420/4/5 419/4/5 418/4/5
f 421/4/5 419/4/5 420/4/5
f 426/4/5 423/4/5 422/4/5
f 427/4/5 423/4/5 426/4/5
f 428/4/5 425/4/5 424/4/5
f 429/4/5 425/4/5 428/4/5
f 432/1/5 431/1/5 430/1/5
f 433/1/5 431/1/5 432/1/5
f 434/4/6 435/4/6 438/4/6
f 438/4/6 435/4/6 439/4/6
f 436/4/6 437/4/6 440/4/6
f 440/4/6 437/4/6 441/4/6
f 439/2/6 440/2/6 442/2/6
f 442/2/6 440/2/6 443/2/6
f 444/4/6 445/4/6 448/4/6
f 448/4/6 445/4/6 449/4/6
f 446/4/6 447/4/6 450/4/6
f 450/4/6 447/4/6 451/4/6
f 449/2/6 450/2/6 452/2/6
f 452/2/6 450/2/6 453/2/6
f 454/2/6 455/2/6 456/2/6
f 456/2/6 455/2/6 457/2/6
f 458/3/6 459/3/6 461/3/6
f 461/3/6 459/3/6 462/3/6
f 460/4/6 461/4/6 465/4/6
f 465/4/6 461/4/6 466/4/6
f 462/4/6 463/4/6 467/4/6
f 467/4/6 463/4/6 468/4/6
f 464/4/6 465/4/6 470/4/6
f 470/4/6 465/4/6 471/4/6
f 468/4/6 469/4/6 472/4/6
f 472/4/6 469/4/6 473/4/6
f 474/2/6 475/2/6 476/2/6
f 476/2/6 475/2/6 477/2/6
f 478/4/6 479/4/6 482/4/6
f 482/4/6 479/4/6 483/4/6
f 480/4/6 481/4/6 484/4/6
f 484/4/6 481/4/6 485/4/6
f 486/4/6 487/4/6 489/4/6
f 489/4/6 487/4/6 490/4/6
f 488/4/6 489/4/6 492/4/6
f 492/4/6 489/4/6 493/4/6
f 490/4/6 491/4/6 494/4/6
f 494/4/6 491/4/6 495/4/6
f 496/2/6 497/2/6 498/2/6
f 498/2/6 497/2/6 499/2/6
f 500/4/6 501/4/6 502/4/6
f 502/4/6 501/4/6 503/4/6
f 504/1/6 505/1/6 508/1/6
f 508/1/6 505/1/6 509/1/6
f 506/1/6 507/1/6 510/1/6
f 510/1/6 507/1/6 511/1/6
f 512/1/6 513/1/6 516/1/6
f 516/1/6 513/1/6 517/1/6
f 514/1/6 515/1/6 518/1/6
f 518/1/6 515/1/6 519/1/6
f 520/1/6 521/1/6 522/1/6
f 522/1/6 521/1/6 523/1/6
f 524/1/6 525/1/6 528/1/6
f 528/1/6 525/1/6 529/1/6
f 526/1/6 527/1/6 530/1/6
f 530/1/6 527/1/6 531/1/6
f 532/1/6 533/1/6 534/1/6
f 534/1/6 533/1/6 535/1/6
