# MagicaVoxel @ Ephtracy

# group
o 

# material
mtllib Nimb.mtl
usemtl palette

# normals
vn -1 0 0
vn 1 0 0
vn 0 0 1
vn 0 0 -1
vn 0 -1 0
vn 0 1 0

# texcoords
vt 0.0175781 0.5
vt 0.669922 0.5
vt 0.673828 0.5
vt 0.677734 0.5
vt 0.994141 0.5

# verts
v -0.3 0.3 0.1
v -0.3 0.3 0
v -0.3 0.5 0.1
v -0.3 0.5 0
v -0.2 0 0.1
v -0.2 0 0
v -0.2 0 -0.2
v -0.2 0 -0.4
v -0.2 0.1 0.2
v -0.2 0.1 0.1
v -0.2 0.1 0
v -0.2 0.1 -0.2
v -0.2 0.1 -0.3
v -0.2 0.1 -0.4
v -0.2 0.2 -0.1
v -0.2 0.2 -0.3
v -0.2 0.3 0.1
v -0.2 0.3 0
v -0.2 0.5 0.2
v -0.2 0.5 0.1
v -0.2 0.5 0
v -0.2 0.6 0.2
v -0.2 0.6 0.1
v -0.2 0.6 0
v -0.2 0.6 -0.1
v -0.2 0.7 0.3
v -0.2 0.7 0.2
v -0.2 0.7 0.1
v -0.2 0.8 0.3
v -0.2 0.8 0.2
v -0.2 0.8 0.1
v -0.2 0.9 0.2
v -0.2 0.9 0
v -0.2 1 0.3
v -0.2 1 -0.1
v -0.2 1.1 0.3
v -0.2 1.1 -0.1
v -0.1 0 -0.4
v -0.1 0 -0.6
v -0.1 0.1 -0.3
v -0.1 0.1 -0.4
v -0.1 0.1 -0.6
v -0.1 0.2 0.3
v -0.1 0.2 0.2
v -0.1 0.2 -0.1
v -0.1 0.2 -0.3
v -0.1 0.2 -0.4
v -0.1 0.3 -0.2
v -0.1 0.3 -0.3
v -0.1 0.5 0.3
v -0.1 0.5 0.2
v -0.1 0.5 0.1
v -0.1 0.5 -0.1
v -0.1 0.5 -0.2
v -0.1 0.6 0.4
v -0.1 0.6 0.2
v -0.1 0.6 0.1
v -0.1 0.6 0
v -0.1 0.6 -0.1
v -0.1 0.7 0.5
v -0.1 0.7 0.4
v -0.1 0.7 0.3
v -0.1 0.7 0.2
v -0.1 0.8 0.5
v -0.1 0.8 0.3
v -0.1 0.8 0.2
v -0.1 0.8 0
v -0.1 0.8 -0.1
v -0.1 0.9 0.3
v -0.1 0.9 0.2
v 0.1 0 0.1
v 0.1 0 0
v 0.1 0.1 0.1
v 0.1 0.1 0
v 0.1 1 0.2
v 0.1 1 0
v 0.1 1.1 0.2
v 0.1 1.1 0
v -0.1 0 0.1
v -0.1 0 0
v -0.1 0.1 0.1
v -0.1 0.1 0
v -0.1 1 0.2
v -0.1 1 0
v -0.1 1.1 0.2
v -0.1 1.1 0
v 0.1 0 -0.4
v 0.1 0 -0.6
v 0.1 0.1 -0.3
v 0.1 0.1 -0.4
v 0.1 0.1 -0.6
v 0.1 0.2 0.3
v 0.1 0.2 0.2
v 0.1 0.2 -0.1
v 0.1 0.2 -0.3
v 0.1 0.2 -0.4
v 0.1 0.3 -0.2
v 0.1 0.3 -0.3
v 0.1 0.5 0.3
v 0.1 0.5 0.2
v 0.1 0.5 0.1
v 0.1 0.5 -0.1
v 0.1 0.5 -0.2
v 0.1 0.6 0.4
v 0.1 0.6 0.2
v 0.1 0.6 0.1
v 0.1 0.6 0
v 0.1 0.6 -0.1
v 0.1 0.7 0.5
v 0.1 0.7 0.4
v 0.1 0.7 0.3
v 0.1 0.7 0.2
v 0.1 0.8 0.5
v 0.1 0.8 0.3
v 0.1 0.8 0.2
v 0.1 0.8 0
v 0.1 0.8 -0.1
v 0.1 0.9 0.3
v 0.1 0.9 0.2
v 0.2 0 0.1
v 0.2 0 0
v 0.2 0 -0.2
v 0.2 0 -0.4
v 0.2 0.1 0.2
v 0.2 0.1 0.1
v 0.2 0.1 0
v 0.2 0.1 -0.2
v 0.2 0.1 -0.3
v 0.2 0.1 -0.4
v 0.2 0.2 -0.1
v 0.2 0.2 -0.3
v 0.2 0.3 0.1
v 0.2 0.3 0
v 0.2 0.5 0.2
v 0.2 0.5 0.1
v 0.2 0.5 0
v 0.2 0.6 0.2
v 0.2 0.6 0.1
v 0.2 0.6 0
v 0.2 0.6 -0.1
v 0.2 0.7 0.3
v 0.2 0.7 0.2
v 0.2 0.7 0.1
v 0.2 0.8 0.3
v 0.2 0.8 0.2
v 0.2 0.8 0.1
v 0.2 0.9 0.2
v 0.2 0.9 0
v 0.2 1 0.3
v 0.2 1 -0.1
v 0.2 1.1 0.3
v 0.2 1.1 -0.1
v 0.3 0.3 0.1
v 0.3 0.3 0
v 0.3 0.5 0.1
v 0.3 0.5 0
v -0.1 0.7 0.5
v -0.1 0.8 0.5
v 0.1 0.7 0.5
v 0.1 0.8 0.5
v -0.1 0.6 0.4
v -0.1 0.7 0.4
v 0.1 0.6 0.4
v 0.1 0.7 0.4
v -0.2 0.7 0.3
v -0.2 0.8 0.3
v -0.2 1 0.3
v -0.2 1.1 0.3
v -0.1 0.2 0.3
v -0.1 0.5 0.3
v -0.1 0.7 0.3
v -0.1 0.8 0.3
v -0.1 0.9 0.3
v 0.1 0.2 0.3
v 0.1 0.5 0.3
v 0.1 0.7 0.3
v 0.1 0.8 0.3
v 0.1 0.9 0.3
v 0.2 0.7 0.3
v 0.2 0.8 0.3
v 0.2 1 0.3
v 0.2 1.1 0.3
v -0.2 0.1 0.2
v -0.2 0.5 0.2
v -0.2 0.6 0.2
v -0.2 0.7 0.2
v -0.2 0.8 0.2
v -0.2 0.9 0.2
v -0.1 0.2 0.2
v -0.1 0.5 0.2
v -0.1 0.6 0.2
v -0.1 0.7 0.2
v -0.1 0.8 0.2
v -0.1 0.9 0.2
v 0.1 0.2 0.2
v 0.1 0.5 0.2
v 0.1 0.6 0.2
v 0.1 0.7 0.2
v 0.1 0.8 0.2
v 0.1 0.9 0.2
v 0.2 0.1 0.2
v 0.2 0.5 0.2
v 0.2 0.6 0.2
v 0.2 0.7 0.2
v 0.2 0.8 0.2
v 0.2 0.9 0.2
v -0.3 0.3 0.1
v -0.3 0.5 0.1
v -0.2 0 0.1
v -0.2 0.1 0.1
v -0.2 0.3 0.1
v -0.2 0.5 0.1
v -0.2 0.6 0.1
v -0.1 0 0.1
v -0.1 0.1 0.1
v -0.1 0.5 0.1
v -0.1 0.6 0.1
v 0.1 0 0.1
v 0.1 0.1 0.1
v 0.1 0.5 0.1
v 0.1 0.6 0.1
v 0.2 0 0.1
v 0.2 0.1 0.1
v 0.2 0.3 0.1
v 0.2 0.5 0.1
v 0.2 0.6 0.1
v 0.3 0.3 0.1
v 0.3 0.5 0.1
v -0.1 1 0
v -0.1 1.1 0
v 0.1 1 0
v 0.1 1.1 0
v -0.2 0 -0.2
v -0.2 0.1 -0.2
v 0.2 0 -0.2
v 0.2 0.1 -0.2
v -0.1 1 0.2
v -0.1 1.1 0.2
v 0.1 1 0.2
v 0.1 1.1 0.2
v -0.3 0.3 0
v -0.3 0.5 0
v -0.2 0 0
v -0.2 0.1 0
v -0.2 0.3 0
v -0.2 0.5 0
v -0.2 0.6 0
v -0.2 0.9 0
v -0.1 0 0
v -0.1 0.1 0
v -0.1 0.6 0
v -0.1 0.8 0
v 0.1 0 0
v 0.1 0.1 0
v 0.1 0.6 0
v 0.1 0.8 0
v 0.2 0 0
v 0.2 0.1 0
v 0.2 0.3 0
v 0.2 0.5 0
v 0.2 0.6 0
v 0.2 0.9 0
v 0.3 0.3 0
v 0.3 0.5 0
v -0.2 0.2 -0.1
v -0.2 0.6 -0.1
v -0.2 1 -0.1
v -0.2 1.1 -0.1
v -0.1 0.2 -0.1
v -0.1 0.5 -0.1
v -0.1 0.6 -0.1
v -0.1 0.8 -0.1
v 0.1 0.2 -0.1
v 0.1 0.5 -0.1
v 0.1 0.6 -0.1
v 0.1 0.8 -0.1
v 0.2 0.2 -0.1
v 0.2 0.6 -0.1
v 0.2 1 -0.1
v 0.2 1.1 -0.1
v -0.1 0.3 -0.2
v -0.1 0.5 -0.2
v 0.1 0.3 -0.2
v 0.1 0.5 -0.2
v -0.2 0.1 -0.3
v -0.2 0.2 -0.3
v -0.1 0.1 -0.3
v -0.1 0.2 -0.3
v -0.1 0.3 -0.3
v 0.1 0.1 -0.3
v 0.1 0.2 -0.3
v 0.1 0.3 -0.3
v 0.2 0.1 -0.3
v 0.2 0.2 -0.3
v -0.2 0 -0.4
v -0.2 0.1 -0.4
v -0.1 0 -0.4
v -0.1 0.1 -0.4
v -0.1 0.2 -0.4
v 0.1 0 -0.4
v 0.1 0.1 -0.4
v 0.1 0.2 -0.4
v 0.2 0 -0.4
v 0.2 0.1 -0.4
v -0.1 0 -0.6
v -0.1 0.1 -0.6
v 0.1 0 -0.6
v 0.1 0.1 -0.6
v -0.2 0 0.1
v -0.1 0 0.1
v 0.1 0 0.1
v 0.2 0 0.1
v -0.2 0 0
v -0.1 0 0
v 0.1 0 0
v 0.2 0 0
v -0.2 0 -0.2
v 0.2 0 -0.2
v -0.1 0 -0.3
v 0 0 -0.3
v -0.2 0 -0.4
v -0.1 0 -0.4
v 0 0 -0.4
v 0.1 0 -0.4
v 0.2 0 -0.4
v -0.1 0 -0.6
v 0.1 0 -0.6
v -0.2 0.1 0.2
v 0.2 0.1 0.2
v -0.2 0.1 0.1
v -0.1 0.1 0.1
v 0.1 0.1 0.1
v 0.2 0.1 0.1
v -0.2 0.1 0
v -0.1 0.1 0
v 0.1 0.1 0
v 0.2 0.1 0
v -0.2 0.1 -0.2
v 0.2 0.1 -0.2
v -0.1 0.2 0.3
v 0.1 0.2 0.3
v -0.1 0.2 0.2
v 0.1 0.2 0.2
v -0.3 0.3 0.1
v -0.2 0.3 0.1
v 0.2 0.3 0.1
v 0.3 0.3 0.1
v -0.3 0.3 0
v -0.2 0.3 0
v 0.2 0.3 0
v 0.3 0.3 0
v -0.1 0.6 0.4
v 0.1 0.6 0.4
v -0.2 0.6 0.2
v -0.1 0.6 0.2
v 0.1 0.6 0.2
v 0.2 0.6 0.2
v -0.2 0.6 0.1
v -0.1 0.6 0.1
v 0.1 0.6 0.1
v 0.2 0.6 0.1
v -0.1 0.7 0.5
v 0.1 0.7 0.5
v -0.1 0.7 0.4
v 0.1 0.7 0.4
v -0.2 0.7 0.3
v -0.1 0.7 0.3
v 0.1 0.7 0.3
v 0.2 0.7 0.3
v -0.2 0.7 0.2
v -0.1 0.7 0.2
v 0.1 0.7 0.2
v 0.2 0.7 0.2
v -0.2 1 0.3
v 0.2 1 0.3
v -0.1 1 0.2
v 0.1 1 0.2
v -0.1 1 0
v 0.1 1 0
v -0.2 1 -0.1
v 0.2 1 -0.1
v -0.2 0.1 -0.3
v -0.1 0.1 -0.3
v 0.1 0.1 -0.3
v 0.2 0.1 -0.3
v -0.2 0.1 -0.4
v -0.1 0.1 -0.4
v 0.1 0.1 -0.4
v 0.2 0.1 -0.4
v -0.1 0.1 -0.6
v 0.1 0.1 -0.6
v -0.2 0.2 -0.1
v -0.1 0.2 -0.1
v 0.1 0.2 -0.1
v 0.2 0.2 -0.1
v -0.2 0.2 -0.3
v -0.1 0.2 -0.3
v 0.1 0.2 -0.3
v 0.2 0.2 -0.3
v -0.1 0.2 -0.4
v 0.1 0.2 -0.4
v -0.1 0.3 -0.2
v 0.1 0.3 -0.2
v -0.1 0.3 -0.3
v 0.1 0.3 -0.3
v -0.1 0.5 0.3
v 0.1 0.5 0.3
v -0.2 0.5 0.2
v -0.1 0.5 0.2
v 0.1 0.5 0.2
v 0.2 0.5 0.2
v -0.3 0.5 0.1
v -0.2 0.5 0.1
v -0.1 0.5 0.1
v 0.1 0.5 0.1
v 0.2 0.5 0.1
v 0.3 0.5 0.1
v -0.3 0.5 0
v -0.2 0.5 0
v 0.2 0.5 0
v 0.3 0.5 0
v -0.1 0.5 -0.1
v 0.1 0.5 -0.1
v -0.1 0.5 -0.2
v 0.1 0.5 -0.2
v -0.2 0.6 0
v -0.1 0.6 0
v 0.1 0.6 0
v 0.2 0.6 0
v -0.2 0.6 -0.1
v -0.1 0.6 -0.1
v 0.1 0.6 -0.1
v 0.2 0.6 -0.1
v -0.1 0.8 0.5
v 0.1 0.8 0.5
v -0.2 0.8 0.3
v -0.1 0.8 0.3
v 0.1 0.8 0.3
v 0.2 0.8 0.3
v -0.2 0.8 0.2
v -0.1 0.8 0.2
v 0.1 0.8 0.2
v 0.2 0.8 0.2
v -0.1 0.8 0
v 0.1 0.8 0
v -0.1 0.8 -0.1
v 0.1 0.8 -0.1
v -0.1 0.9 0.3
v 0.1 0.9 0.3
v -0.2 0.9 0.2
v -0.1 0.9 0.2
v 0.1 0.9 0.2
v 0.2 0.9 0.2
v -0.2 0.9 0
v 0.2 0.9 0
v -0.2 1.1 0.3
v 0.2 1.1 0.3
v -0.1 1.1 0.2
v 0.1 1.1 0.2
v -0.1 1.1 0
v 0.1 1.1 0
v -0.2 1.1 -0.1
v 0.2 1.1 -0.1

# faces
f 3/4/1 2/4/1 1/4/1
f 4/4/1 2/4/1 3/4/1
f 10/4/1 6/4/1 5/4/1
f 11/4/1 6/4/1 10/4/1
f 12/4/1 8/4/1 7/4/1
f 13/4/1 8/4/1 12/4/1
f 14/4/1 8/4/1 13/4/1
f 15/4/1 11/4/1 10/4/1
f 15/4/1 10/4/1 9/4/1
f 15/4/1 13/4/1 12/4/1
f 15/4/1 12/4/1 11/4/1
f 16/4/1 13/4/1 15/4/1
f 17/4/1 15/4/1 9/4/1
f 18/4/1 15/4/1 17/4/1
f 19/4/1 17/4/1 9/4/1
f 20/4/1 17/4/1 19/4/1
f 21/4/1 15/4/1 18/4/1
f 23/4/1 21/4/1 20/4/1
f 24/4/1 15/4/1 21/4/1
f 24/4/1 21/4/1 23/4/1
f 25/4/1 15/4/1 24/4/1
f 27/4/1 23/4/1 22/4/1
f 27/4/1 24/4/1 23/4/1
f 28/4/1 24/4/1 27/4/1
f 29/4/1 27/4/1 26/4/1
f 30/5/1 28/5/1 27/5/1
f 30/4/1 27/4/1 29/4/1
f 31/4/1 24/4/1 28/4/1
f 31/5/1 28/5/1 30/5/1
f 32/4/1 31/4/1 30/4/1
f 33/4/1 24/4/1 31/4/1
f 33/4/1 31/4/1 32/4/1
f 36/1/1 35/1/1 34/1/1
f 37/1/1 35/1/1 36/1/1
f 41/2/1 39/2/1 38/2/1
f 42/2/1 39/2/1 41/2/1
f 46/2/1 41/2/1 40/2/1
f 47/2/1 41/2/1 46/2/1
f 48/2/1 46/2/1 45/2/1
f 49/2/1 46/2/1 48/2/1
f 50/3/1 44/3/1 43/3/1
f 51/3/1 44/3/1 50/3/1
f 53/2/1 48/2/1 45/2/1
f 54/2/1 48/2/1 53/2/1
f 56/4/1 52/4/1 51/4/1
f 57/4/1 52/4/1 56/4/1
f 61/4/1 56/4/1 55/4/1
f 62/4/1 56/4/1 61/4/1
f 63/4/1 56/4/1 62/4/1
f 64/4/1 61/4/1 60/4/1
f 64/4/1 62/4/1 61/4/1
f 65/4/1 62/4/1 64/4/1
f 67/2/1 59/2/1 58/2/1
f 68/2/1 59/2/1 67/2/1
f 69/4/1 66/4/1 65/4/1
f 70/4/1 66/4/1 69/4/1
f 73/4/1 72/4/1 71/4/1
f 74/4/1 72/4/1 73/4/1
f 77/1/1 76/1/1 75/1/1
f 78/1/1 76/1/1 77/1/1
f 79/4/2 80/4/2 81/4/2
f 81/4/2 80/4/2 82/4/2
f 83/1/2 84/1/2 85/1/2
f 85/1/2 84/1/2 86/1/2
f 87/2/2 88/2/2 90/2/2
f 90/2/2 88/2/2 91/2/2
f 89/2/2 90/2/2 95/2/2
f 95/2/2 90/2/2 96/2/2
f 94/2/2 95/2/2 97/2/2
f 97/2/2 95/2/2 98/2/2
f 92/3/2 93/3/2 99/3/2
f 99/3/2 93/3/2 100/3/2
f 94/2/2 97/2/2 102/2/2
f 102/2/2 97/2/2 103/2/2
f 100/4/2 101/4/2 105/4/2
f 105/4/2 101/4/2 106/4/2
f 104/4/2 105/4/2 110/4/2
f 110/4/2 105/4/2 111/4/2
f 111/4/2 105/4/2 112/4/2
f 109/4/2 110/4/2 113/4/2
f 110/4/2 111/4/2 113/4/2
f 113/4/2 111/4/2 114/4/2
f 107/2/2 108/2/2 116/2/2
f 116/2/2 108/2/2 117/2/2
f 114/4/2 115/4/2 118/4/2
f 118/4/2 115/4/2 119/4/2
f 120/4/2 121/4/2 125/4/2
f 125/4/2 121/4/2 126/4/2
f 122/4/2 123/4/2 127/4/2
f 127/4/2 123/4/2 128/4/2
f 128/4/2 123/4/2 129/4/2
f 125/4/2 126/4/2 130/4/2
f 124/4/2 125/4/2 130/4/2
f 127/4/2 128/4/2 130/4/2
f 126/4/2 127/4/2 130/4/2
f 130/4/2 128/4/2 131/4/2
f 124/4/2 130/4/2 132/4/2
f 132/4/2 130/4/2 133/4/2
f 124/4/2 132/4/2 134/4/2
f 134/4/2 132/4/2 135/4/2
f 133/4/2 130/4/2 136/4/2
f 135/4/2 136/4/2 138/4/2
f 136/4/2 130/4/2 139/4/2
f 138/4/2 136/4/2 139/4/2
f 139/4/2 130/4/2 140/4/2
f 137/4/2 138/4/2 142/4/2
f 138/4/2 139/4/2 142/4/2
f 142/4/2 139/4/2 143/4/2
f 141/4/2 142/4/2 144/4/2
f 142/5/2 143/5/2 145/5/2
f 144/4/2 142/4/2 145/4/2
f 143/4/2 139/4/2 146/4/2
f 145/5/2 143/5/2 146/5/2
f 145/4/2 146/4/2 147/4/2
f 146/4/2 139/4/2 148/4/2
f 147/4/2 146/4/2 148/4/2
f 149/1/2 150/1/2 151/1/2
f 151/1/2 150/1/2 152/1/2
f 153/4/2 154/4/2 155/4/2
f 155/4/2 154/4/2 156/4/2
f 159/4/3 158/4/3 157/4/3
f 160/4/3 158/4/3 159/4/3
f 163/4/3 162/4/3 161/4/3
f 164/4/3 162/4/3 163/4/3
f 171/4/3 166/4/3 165/4/3
f 172/4/3 166/4/3 171/4/3
f 174/3/3 170/3/3 169/3/3
f 175/3/3 170/3/3 174/3/3
f 177/4/3 173/4/3 172/4/3
f 178/4/3 173/4/3 177/4/3
f 179/4/3 177/4/3 176/4/3
f 180/4/3 177/4/3 179/4/3
f 181/1/3 168/1/3 167/1/3
f 182/1/3 168/1/3 181/1/3
f 189/4/3 184/4/3 183/4/3
f 190/4/3 184/4/3 189/4/3
f 191/4/3 186/4/3 185/4/3
f 192/4/3 186/4/3 191/4/3
f 193/4/3 188/4/3 187/4/3
f 194/4/3 188/4/3 193/4/3
f 195/4/3 189/4/3 183/4/3
f 196/4/3 191/4/3 190/4/3
f 197/4/3 191/4/3 196/4/3
f 201/4/3 195/4/3 183/4/3
f 201/4/3 196/4/3 195/4/3
f 202/4/3 196/4/3 201/4/3
f 203/4/3 198/4/3 197/4/3
f 204/4/3 198/4/3 203/4/3
f 205/4/3 200/4/3 199/4/3
f 206/4/3 200/4/3 205/4/3
f 211/4/3 208/4/3 207/4/3
f 212/4/3 208/4/3 211/4/3
f 214/4/3 210/4/3 209/4/3
f 215/4/3 210/4/3 214/4/3
f 216/4/3 213/4/3 212/4/3
f 217/4/3 213/4/3 216/4/3
f 222/4/3 219/4/3 218/4/3
f 223/4/3 219/4/3 222/4/3
f 225/4/3 221/4/3 220/4/3
f 226/4/3 221/4/3 225/4/3
f 227/4/3 225/4/3 224/4/3
f 228/4/3 225/4/3 227/4/3
f 231/1/3 230/1/3 229/1/3
f 232/1/3 230/1/3 231/1/3
f 235/4/3 234/4/3 233/4/3
f 236/4/3 234/4/3 235/4/3
f 237/1/4 238/1/4 239/1/4
f 239/1/4 238/1/4 240/1/4
f 241/4/4 242/4/4 245/4/4
f 245/4/4 242/4/4 246/4/4
f 243/4/4 244/4/4 249/4/4
f 249/4/4 244/4/4 250/4/4
f 247/4/4 248/4/4 251/4/4
f 251/4/4 248/4/4 252/4/4
f 252/4/4 248/4/4 256/4/4
f 253/4/4 254/4/4 257/4/4
f 257/4/4 254/4/4 258/4/4
f 255/4/4 256/4/4 261/4/4
f 256/4/4 248/4/4 262/4/4
f 261/4/4 256/4/4 262/4/4
f 259/4/4 260/4/4 263/4/4
f 263/4/4 260/4/4 264/4/4
f 265/4/4 266/4/4 269/4/4
f 269/4/4 266/4/4 270/4/4
f 270/4/4 266/4/4 271/4/4
f 271/2/4 272/2/4 274/2/4
f 270/2/4 271/2/4 274/2/4
f 274/2/4 272/2/4 275/2/4
f 275/2/4 272/2/4 276/2/4
f 273/4/4 274/4/4 277/4/4
f 274/4/4 275/4/4 277/4/4
f 277/4/4 275/4/4 278/4/4
f 267/1/4 268/1/4 279/1/4
f 279/1/4 268/1/4 280/1/4
f 281/2/4 282/2/4 283/2/4
f 283/2/4 282/2/4 284/2/4
f 285/4/4 286/4/4 287/4/4
f 287/4/4 286/4/4 288/4/4
f 288/2/4 289/2/4 291/2/4
f 291/2/4 289/2/4 292/2/4
f 290/4/4 291/4/4 293/4/4
f 293/4/4 291/4/4 294/4/4
f 295/4/4 296/4/4 297/4/4
f 297/4/4 296/4/4 298/4/4
f 298/2/4 299/2/4 301/2/4
f 301/2/4 299/2/4 302/2/4
f 300/4/4 301/4/4 303/4/4
f 303/4/4 301/4/4 304/4/4
f 305/2/4 306/2/4 307/2/4
f 307/2/4 306/2/4 308/2/4
f 313/4/5 310/4/5 309/4/5
f 314/4/5 310/4/5 313/4/5
f 315/4/5 312/4/5 311/4/5
f 316/4/5 312/4/5 315/4/5
f 319/4/5 318/4/5 317/4/5
f 320/4/5 318/4/5 319/4/5
f 321/4/5 319/4/5 317/4/5
f 322/2/5 320/2/5 319/2/5
f 322/4/5 319/4/5 321/4/5
f 323/4/5 318/4/5 320/4/5
f 323/2/5 320/2/5 322/2/5
f 324/4/5 318/4/5 323/4/5
f 325/4/5 318/4/5 324/4/5
f 326/2/5 323/2/5 322/2/5
f 326/2/5 324/2/5 323/2/5
f 327/2/5 324/2/5 326/2/5
f 330/4/5 329/4/5 328/4/5
f 331/4/5 329/4/5 330/4/5
f 332/4/5 329/4/5 331/4/5
f 333/4/5 329/4/5 332/4/5
f 335/4/5 332/4/5 331/4/5
f 336/4/5 332/4/5 335/4/5
f 338/4/5 335/4/5 334/4/5
f 338/4/5 337/4/5 336/4/5
f 338/4/5 336/4/5 335/4/5
f 339/4/5 337/4/5 338/4/5
f 342/3/5 341/3/5 340/3/5
f 343/3/5 341/3/5 342/3/5
f 348/4/5 345/4/5 344/4/5
f 349/4/5 345/4/5 348/4/5
f 350/4/5 347/4/5 346/4/5
f 351/4/5 347/4/5 350/4/5
f 355/4/5 353/4/5 352/4/5
f 356/4/5 353/4/5 355/4/5
f 358/4/5 355/4/5 354/4/5
f 359/4/5 355/4/5 358/4/5
f 360/4/5 357/4/5 356/4/5
f 361/4/5 357/4/5 360/4/5
f 364/4/5 363/4/5 362/4/5
f 365/4/5 363/4/5 364/4/5
f 370/4/5 367/4/5 366/4/5
f 371/4/5 367/4/5 370/4/5
f 372/4/5 369/4/5 368/4/5
f 373/4/5 369/4/5 372/4/5
f 376/1/5 375/1/5 374/1/5
f 377/1/5 375/1/5 376/1/5
f 378/1/5 376/1/5 374/1/5
f 379/1/5 375/1/5 377/1/5
f 380/1/5 378/1/5 374/1/5
f 380/1/5 379/1/5 378/1/5
f 381/1/5 375/1/5 379/1/5
f 381/1/5 379/1/5 380/1/5
f 382/4/6 383/4/6 386/4/6
f 386/4/6 383/4/6 387/4/6
f 384/4/6 385/4/6 388/4/6
f 388/4/6 385/4/6 389/4/6
f 387/2/6 388/2/6 390/2/6
f 390/2/6 388/2/6 391/2/6
f 392/4/6 393/4/6 396/4/6
f 396/4/6 393/4/6 397/4/6
f 394/4/6 395/4/6 398/4/6
f 398/4/6 395/4/6 399/4/6
f 397/2/6 398/2/6 400/2/6
f 400/2/6 398/2/6 401/2/6
f 402/2/6 403/2/6 404/2/6
f 404/2/6 403/2/6 405/2/6
f 406/3/6 407/3/6 409/3/6
f 409/3/6 407/3/6 410/3/6
f 408/4/6 409/4/6 413/4/6
f 413/4/6 409/4/6 414/4/6
f 410/4/6 411/4/6 415/4/6
f 415/4/6 411/4/6 416/4/6
f 412/4/6 413/4/6 418/4/6
f 418/4/6 413/4/6 419/4/6
f 416/4/6 417/4/6 420/4/6
f 420/4/6 417/4/6 421/4/6
f 422/2/6 423/2/6 424/2/6
f 424/2/6 423/2/6 425/2/6
f 426/4/6 427/4/6 430/4/6
f 430/4/6 427/4/6 431/4/6
f 428/4/6 429/4/6 432/4/6
f 432/4/6 429/4/6 433/4/6
f 434/4/6 435/4/6 437/4/6
f 437/4/6 435/4/6 438/4/6
f 436/4/6 437/4/6 440/4/6
f 440/4/6 437/4/6 441/4/6
f 438/4/6 439/4/6 442/4/6
f 442/4/6 439/4/6 443/4/6
f 444/2/6 445/2/6 446/2/6
f 446/2/6 445/2/6 447/2/6
f 448/4/6 449/4/6 451/4/6
f 451/4/6 449/4/6 452/4/6
f 450/4/6 451/4/6 454/4/6
f 452/4/6 453/4/6 454/4/6
f 451/4/6 452/4/6 454/4/6
f 454/4/6 453/4/6 455/4/6
f 456/1/6 457/1/6 458/1/6
f 458/1/6 457/1/6 459/1/6
f 456/1/6 458/1/6 460/1/6
f 459/1/6 457/1/6 461/1/6
f 456/1/6 460/1/6 462/1/6
f 460/1/6 461/1/6 462/1/6
f 461/1/6 457/1/6 463/1/6
f 462/1/6 461/1/6 463/1/6
