# MagicaVoxel @ Ephtracy

# group
o 

# material
mtllib Povar.mtl
usemtl palette

# normals
vn -1 0 0
vn 1 0 0
vn 0 0 1
vn 0 0 -1
vn 0 -1 0
vn 0 1 0

# texcoords
vt 0.669922 0.5
vt 0.673828 0.5
vt 0.677734 0.5
vt 0.966797 0.5
vt 0.994141 0.5

# verts
v -0.3 0.3 0.1
v -0.3 0.3 0
v -0.3 0.5 0.1
v -0.3 0.5 0
v -0.3 1.1 0.2
v -0.3 1.1 0
v -0.3 1.3 0.2
v -0.3 1.3 0
v -0.2 0 0.1
v -0.2 0 0
v -0.2 0 -0.2
v -0.2 0 -0.4
v -0.2 0.1 0.2
v -0.2 0.1 0.1
v -0.2 0.1 0
v -0.2 0.1 -0.2
v -0.2 0.1 -0.3
v -0.2 0.1 -0.4
v -0.2 0.2 -0.1
v -0.2 0.2 -0.3
v -0.2 0.3 0.1
v -0.2 0.3 0
v -0.2 0.4 0
v -0.2 0.4 -0.1
v -0.2 0.5 0.2
v -0.2 0.5 0.1
v -0.2 0.5 0
v -0.2 0.6 0.2
v -0.2 0.6 0.1
v -0.2 0.6 0
v -0.2 0.6 -0.1
v -0.2 0.7 0.3
v -0.2 0.7 0.2
v -0.2 0.7 0.1
v -0.2 0.8 0.3
v -0.2 0.8 0.2
v -0.2 0.8 0.1
v -0.2 0.9 0.2
v -0.2 0.9 0
v -0.2 1.1 0.3
v -0.2 1.1 0.2
v -0.2 1.1 0
v -0.2 1.1 -0.1
v -0.2 1.3 0.3
v -0.2 1.3 0.2
v -0.2 1.3 0
v -0.2 1.3 -0.1
v -0.1 0 -0.4
v -0.1 0 -0.6
v -0.1 0.1 -0.3
v -0.1 0.1 -0.4
v -0.1 0.1 -0.6
v -0.1 0.2 0.3
v -0.1 0.2 0.2
v -0.1 0.2 -0.1
v -0.1 0.2 -0.3
v -0.1 0.2 -0.4
v -0.1 0.3 -0.2
v -0.1 0.3 -0.3
v -0.1 0.4 -0.1
v -0.1 0.5 0.3
v -0.1 0.5 0.2
v -0.1 0.5 0.1
v -0.1 0.5 -0.1
v -0.1 0.5 -0.2
v -0.1 0.6 0.4
v -0.1 0.6 0.2
v -0.1 0.6 0.1
v -0.1 0.6 0
v -0.1 0.6 -0.1
v -0.1 0.7 0.5
v -0.1 0.7 0.4
v -0.1 0.7 0.3
v -0.1 0.7 0.2
v -0.1 0.8 0.5
v -0.1 0.8 0.3
v -0.1 0.8 0.2
v -0.1 0.8 0
v -0.1 0.8 -0.1
v -0.1 0.9 0.3
v -0.1 0.9 0.2
v -0.1 0.9 0
v -0.1 0.9 -0.1
v -0.1 1.1 0.4
v -0.1 1.1 0.3
v -0.1 1.1 0.2
v -0.1 1.1 0
v -0.1 1.1 -0.1
v -0.1 1.1 -0.2
v -0.1 1.3 0.4
v -0.1 1.3 0.3
v -0.1 1.3 -0.1
v -0.1 1.3 -0.2
v 0.1 0 0.1
v 0.1 0 0
v 0.1 0.1 0.1
v 0.1 0.1 0
v -0.1 0 0.1
v -0.1 0 0
v -0.1 0.1 0.1
v -0.1 0.1 0
v 0.1 0 -0.4
v 0.1 0 -0.6
v 0.1 0.1 -0.3
v 0.1 0.1 -0.4
v 0.1 0.1 -0.6
v 0.1 0.2 0.3
v 0.1 0.2 0.2
v 0.1 0.2 -0.1
v 0.1 0.2 -0.3
v 0.1 0.2 -0.4
v 0.1 0.3 -0.2
v 0.1 0.3 -0.3
v 0.1 0.4 -0.1
v 0.1 0.5 0.3
v 0.1 0.5 0.2
v 0.1 0.5 0.1
v 0.1 0.5 -0.1
v 0.1 0.5 -0.2
v 0.1 0.6 0.4
v 0.1 0.6 0.2
v 0.1 0.6 0.1
v 0.1 0.6 0
v 0.1 0.6 -0.1
v 0.1 0.7 0.5
v 0.1 0.7 0.4
v 0.1 0.7 0.3
v 0.1 0.7 0.2
v 0.1 0.8 0.5
v 0.1 0.8 0.3
v 0.1 0.8 0.2
v 0.1 0.8 0
v 0.1 0.8 -0.1
v 0.1 0.9 0.3
v 0.1 0.9 0.2
v 0.1 0.9 0
v 0.1 0.9 -0.1
v 0.1 1.1 0.4
v 0.1 1.1 0.3
v 0.1 1.1 0.2
v 0.1 1.1 0
v 0.1 1.1 -0.1
v 0.1 1.1 -0.2
v 0.1 1.3 0.4
v 0.1 1.3 0.3
v 0.1 1.3 -0.1
v 0.1 1.3 -0.2
v 0.2 0 0.1
v 0.2 0 0
v 0.2 0 -0.2
v 0.2 0 -0.4
v 0.2 0.1 0.2
v 0.2 0.1 0.1
v 0.2 0.1 0
v 0.2 0.1 -0.2
v 0.2 0.1 -0.3
v 0.2 0.1 -0.4
v 0.2 0.2 -0.1
v 0.2 0.2 -0.3
v 0.2 0.3 0.1
v 0.2 0.3 0
v 0.2 0.4 0
v 0.2 0.4 -0.1
v 0.2 0.5 0.2
v 0.2 0.5 0.1
v 0.2 0.5 0
v 0.2 0.6 0.2
v 0.2 0.6 0.1
v 0.2 0.6 0
v 0.2 0.6 -0.1
v 0.2 0.7 0.3
v 0.2 0.7 0.2
v 0.2 0.7 0.1
v 0.2 0.8 0.3
v 0.2 0.8 0.2
v 0.2 0.8 0.1
v 0.2 0.9 0.2
v 0.2 0.9 0
v 0.2 1.1 0.3
v 0.2 1.1 0.2
v 0.2 1.1 0
v 0.2 1.1 -0.1
v 0.2 1.3 0.3
v 0.2 1.3 0.2
v 0.2 1.3 0
v 0.2 1.3 -0.1
v 0.3 0.3 0.1
v 0.3 0.3 0
v 0.3 0.5 0.1
v 0.3 0.5 0
v 0.3 1.1 0.2
v 0.3 1.1 0
v 0.3 1.3 0.2
v 0.3 1.3 0
v -0.1 0.7 0.5
v -0.1 0.8 0.5
v 0.1 0.7 0.5
v 0.1 0.8 0.5
v -0.1 0.6 0.4
v -0.1 0.7 0.4
v -0.1 1.1 0.4
v -0.1 1.3 0.4
v 0.1 0.6 0.4
v 0.1 0.7 0.4
v 0.1 1.1 0.4
v 0.1 1.3 0.4
v -0.2 0.7 0.3
v -0.2 0.8 0.3
v -0.2 1.1 0.3
v -0.2 1.3 0.3
v -0.1 0.2 0.3
v -0.1 0.5 0.3
v -0.1 0.7 0.3
v -0.1 0.8 0.3
v -0.1 0.9 0.3
v -0.1 1.1 0.3
v -0.1 1.3 0.3
v 0.1 0.2 0.3
v 0.1 0.5 0.3
v 0.1 0.7 0.3
v 0.1 0.8 0.3
v 0.1 0.9 0.3
v 0.1 1.1 0.3
v 0.1 1.3 0.3
v 0.2 0.7 0.3
v 0.2 0.8 0.3
v 0.2 1.1 0.3
v 0.2 1.3 0.3
v -0.3 1.1 0.2
v -0.3 1.3 0.2
v -0.2 0.1 0.2
v -0.2 0.5 0.2
v -0.2 0.6 0.2
v -0.2 0.7 0.2
v -0.2 0.8 0.2
v -0.2 0.9 0.2
v -0.2 1.1 0.2
v -0.2 1.3 0.2
v -0.1 0.2 0.2
v -0.1 0.5 0.2
v -0.1 0.6 0.2
v -0.1 0.7 0.2
v -0.1 0.8 0.2
v -0.1 0.9 0.2
v -0.1 1.1 0.2
v 0.1 0.2 0.2
v 0.1 0.5 0.2
v 0.1 0.6 0.2
v 0.1 0.7 0.2
v 0.1 0.8 0.2
v 0.1 0.9 0.2
v 0.1 1.1 0.2
v 0.2 0.1 0.2
v 0.2 0.5 0.2
v 0.2 0.6 0.2
v 0.2 0.7 0.2
v 0.2 0.8 0.2
v 0.2 0.9 0.2
v 0.2 1.1 0.2
v 0.2 1.3 0.2
v 0.3 1.1 0.2
v 0.3 1.3 0.2
v -0.3 0.3 0.1
v -0.3 0.5 0.1
v -0.2 0 0.1
v -0.2 0.1 0.1
v -0.2 0.3 0.1
v -0.2 0.5 0.1
v -0.2 0.6 0.1
v -0.1 0 0.1
v -0.1 0.1 0.1
v -0.1 0.5 0.1
v -0.1 0.6 0.1
v 0.1 0 0.1
v 0.1 0.1 0.1
v 0.1 0.5 0.1
v 0.1 0.6 0.1
v 0.2 0 0.1
v 0.2 0.1 0.1
v 0.2 0.3 0.1
v 0.2 0.5 0.1
v 0.2 0.6 0.1
v 0.3 0.3 0.1
v 0.3 0.5 0.1
v -0.2 0 -0.2
v -0.2 0.1 -0.2
v 0.2 0 -0.2
v 0.2 0.1 -0.2
v -0.3 0.3 0
v -0.3 0.5 0
v -0.3 1.1 0
v -0.3 1.3 0
v -0.2 0 0
v -0.2 0.1 0
v -0.2 0.3 0
v -0.2 0.4 0
v -0.2 0.5 0
v -0.2 0.6 0
v -0.2 0.9 0
v -0.2 1.1 0
v -0.2 1.3 0
v -0.1 0 0
v -0.1 0.1 0
v -0.1 0.6 0
v -0.1 0.8 0
v -0.1 0.9 0
v -0.1 1.1 0
v 0.1 0 0
v 0.1 0.1 0
v 0.1 0.6 0
v 0.1 0.8 0
v 0.1 0.9 0
v 0.1 1.1 0
v 0.2 0 0
v 0.2 0.1 0
v 0.2 0.3 0
v 0.2 0.4 0
v 0.2 0.5 0
v 0.2 0.6 0
v 0.2 0.9 0
v 0.2 1.1 0
v 0.2 1.3 0
v 0.3 0.3 0
v 0.3 0.5 0
v 0.3 1.1 0
v 0.3 1.3 0
v -0.2 0.2 -0.1
v -0.2 0.4 -0.1
v -0.2 0.6 -0.1
v -0.2 1.1 -0.1
v -0.2 1.3 -0.1
v -0.1 0.2 -0.1
v -0.1 0.4 -0.1
v -0.1 0.5 -0.1
v -0.1 0.6 -0.1
v -0.1 0.8 -0.1
v -0.1 0.9 -0.1
v -0.1 1.1 -0.1
v -0.1 1.3 -0.1
v 0.1 0.2 -0.1
v 0.1 0.4 -0.1
v 0.1 0.5 -0.1
v 0.1 0.6 -0.1
v 0.1 0.8 -0.1
v 0.1 0.9 -0.1
v 0.1 1.1 -0.1
v 0.1 1.3 -0.1
v 0.2 0.2 -0.1
v 0.2 0.4 -0.1
v 0.2 0.6 -0.1
v 0.2 1.1 -0.1
v 0.2 1.3 -0.1
v -0.1 0.3 -0.2
v -0.1 0.5 -0.2
v -0.1 1.1 -0.2
v -0.1 1.3 -0.2
v 0.1 0.3 -0.2
v 0.1 0.5 -0.2
v 0.1 1.1 -0.2
v 0.1 1.3 -0.2
v -0.2 0.1 -0.3
v -0.2 0.2 -0.3
v -0.1 0.1 -0.3
v -0.1 0.2 -0.3
v -0.1 0.3 -0.3
v 0.1 0.1 -0.3
v 0.1 0.2 -0.3
v 0.1 0.3 -0.3
v 0.2 0.1 -0.3
v 0.2 0.2 -0.3
v -0.2 0 -0.4
v -0.2 0.1 -0.4
v -0.1 0 -0.4
v -0.1 0.1 -0.4
v -0.1 0.2 -0.4
v 0.1 0 -0.4
v 0.1 0.1 -0.4
v 0.1 0.2 -0.4
v 0.2 0 -0.4
v 0.2 0.1 -0.4
v -0.1 0 -0.6
v -0.1 0.1 -0.6
v 0.1 0 -0.6
v 0.1 0.1 -0.6
v -0.2 0 0.1
v -0.1 0 0.1
v 0.1 0 0.1
v 0.2 0 0.1
v -0.2 0 0
v -0.1 0 0
v 0.1 0 0
v 0.2 0 0
v -0.2 0 -0.2
v 0.2 0 -0.2
v -0.1 0 -0.3
v 0 0 -0.3
v -0.2 0 -0.4
v -0.1 0 -0.4
v 0 0 -0.4
v 0.1 0 -0.4
v 0.2 0 -0.4
v -0.1 0 -0.6
v 0.1 0 -0.6
v -0.2 0.1 0.2
v 0.2 0.1 0.2
v -0.2 0.1 0.1
v -0.1 0.1 0.1
v 0.1 0.1 0.1
v 0.2 0.1 0.1
v -0.2 0.1 0
v -0.1 0.1 0
v 0.1 0.1 0
v 0.2 0.1 0
v -0.2 0.1 -0.2
v 0.2 0.1 -0.2
v -0.1 0.2 0.3
v 0.1 0.2 0.3
v -0.1 0.2 0.2
v 0.1 0.2 0.2
v -0.3 0.3 0.1
v -0.2 0.3 0.1
v 0.2 0.3 0.1
v 0.3 0.3 0.1
v -0.3 0.3 0
v -0.2 0.3 0
v 0.2 0.3 0
v 0.3 0.3 0
v -0.1 0.6 0.4
v 0.1 0.6 0.4
v -0.2 0.6 0.2
v -0.1 0.6 0.2
v 0.1 0.6 0.2
v 0.2 0.6 0.2
v -0.2 0.6 0.1
v -0.1 0.6 0.1
v 0.1 0.6 0.1
v 0.2 0.6 0.1
v -0.1 0.7 0.5
v 0.1 0.7 0.5
v -0.1 0.7 0.4
v 0.1 0.7 0.4
v -0.2 0.7 0.3
v -0.1 0.7 0.3
v 0.1 0.7 0.3
v 0.2 0.7 0.3
v -0.2 0.7 0.2
v -0.1 0.7 0.2
v 0.1 0.7 0.2
v 0.2 0.7 0.2
v -0.1 0.9 0
v 0.1 0.9 0
v -0.1 0.9 -0.1
v 0.1 0.9 -0.1
v -0.1 1.1 0.4
v 0.1 1.1 0.4
v -0.2 1.1 0.3
v -0.1 1.1 0.3
v 0.1 1.1 0.3
v 0.2 1.1 0.3
v -0.3 1.1 0.2
v -0.2 1.1 0.2
v -0.1 1.1 0.2
v 0.1 1.1 0.2
v 0.2 1.1 0.2
v 0.3 1.1 0.2
v -0.3 1.1 0
v -0.2 1.1 0
v -0.1 1.1 0
v 0.1 1.1 0
v 0.2 1.1 0
v 0.3 1.1 0
v -0.2 1.1 -0.1
v -0.1 1.1 -0.1
v 0.1 1.1 -0.1
v 0.2 1.1 -0.1
v -0.1 1.1 -0.2
v 0.1 1.1 -0.2
v -0.2 0.1 -0.3
v -0.1 0.1 -0.3
v 0.1 0.1 -0.3
v 0.2 0.1 -0.3
v -0.2 0.1 -0.4
v -0.1 0.1 -0.4
v 0.1 0.1 -0.4
v 0.2 0.1 -0.4
v -0.1 0.1 -0.6
v 0.1 0.1 -0.6
v -0.2 0.2 -0.1
v -0.1 0.2 -0.1
v 0.1 0.2 -0.1
v 0.2 0.2 -0.1
v -0.2 0.2 -0.3
v -0.1 0.2 -0.3
v 0.1 0.2 -0.3
v 0.2 0.2 -0.3
v -0.1 0.2 -0.4
v 0.1 0.2 -0.4
v -0.1 0.3 -0.2
v 0.1 0.3 -0.2
v -0.1 0.3 -0.3
v 0.1 0.3 -0.3
v -0.1 0.5 0.3
v 0.1 0.5 0.3
v -0.2 0.5 0.2
v -0.1 0.5 0.2
v 0.1 0.5 0.2
v 0.2 0.5 0.2
v -0.3 0.5 0.1
v -0.2 0.5 0.1
v -0.1 0.5 0.1
v 0.1 0.5 0.1
v 0.2 0.5 0.1
v 0.3 0.5 0.1
v -0.3 0.5 0
v -0.2 0.5 0
v 0.2 0.5 0
v 0.3 0.5 0
v -0.1 0.5 -0.1
v 0.1 0.5 -0.1
v -0.1 0.5 -0.2
v 0.1 0.5 -0.2
v -0.2 0.6 0
v -0.1 0.6 0
v 0.1 0.6 0
v 0.2 0.6 0
v -0.2 0.6 -0.1
v -0.1 0.6 -0.1
v 0.1 0.6 -0.1
v 0.2 0.6 -0.1
v -0.1 0.8 0.5
v 0.1 0.8 0.5
v -0.2 0.8 0.3
v -0.1 0.8 0.3
v 0.1 0.8 0.3
v 0.2 0.8 0.3
v -0.2 0.8 0.2
v -0.1 0.8 0.2
v 0.1 0.8 0.2
v 0.2 0.8 0.2
v -0.1 0.8 0
v 0.1 0.8 0
v -0.1 0.8 -0.1
v 0.1 0.8 -0.1
v -0.1 1.3 0.4
v 0.1 1.3 0.4
v -0.2 1.3 0.3
v -0.1 1.3 0.3
v 0.1 1.3 0.3
v 0.2 1.3 0.3
v -0.3 1.3 0.2
v -0.2 1.3 0.2
v 0.2 1.3 0.2
v 0.3 1.3 0.2
v -0.3 1.3 0
v -0.2 1.3 0
v 0.2 1.3 0
v 0.3 1.3 0
v -0.2 1.3 -0.1
v -0.1 1.3 -0.1
v 0.1 1.3 -0.1
v 0.2 1.3 -0.1
v -0.1 1.3 -0.2
v 0.1 1.3 -0.2

# faces
f 3/3/1 2/3/1 1/3/1
f 4/3/1 2/3/1 3/3/1
f 7/4/1 6/4/1 5/4/1
f 8/4/1 6/4/1 7/4/1
f 14/3/1 10/3/1 9/3/1
f 15/3/1 10/3/1 14/3/1
f 16/3/1 12/3/1 11/3/1
f 17/3/1 12/3/1 16/3/1
f 18/3/1 12/3/1 17/3/1
f 19/3/1 15/3/1 14/3/1
f 19/3/1 16/3/1 15/3/1
f 19/3/1 17/3/1 16/3/1
f 20/3/1 17/3/1 19/3/1
f 21/4/1 14/4/1 13/4/1
f 21/3/1 19/3/1 14/3/1
f 22/3/1 19/3/1 21/3/1
f 23/3/1 19/3/1 22/3/1
f 24/3/1 19/3/1 23/3/1
f 25/4/1 21/4/1 13/4/1
f 26/4/1 21/4/1 25/4/1
f 27/4/1 24/4/1 23/4/1
f 29/4/1 27/4/1 26/4/1
f 30/4/1 24/4/1 27/4/1
f 30/4/1 27/4/1 29/4/1
f 31/4/1 24/4/1 30/4/1
f 33/3/1 29/3/1 28/3/1
f 33/3/1 30/3/1 29/3/1
f 34/3/1 30/3/1 33/3/1
f 35/3/1 33/3/1 32/3/1
f 36/5/1 34/5/1 33/5/1
f 36/3/1 33/3/1 35/3/1
f 37/3/1 30/3/1 34/3/1
f 37/5/1 34/5/1 36/5/1
f 38/3/1 37/3/1 36/3/1
f 39/3/1 30/3/1 37/3/1
f 39/3/1 37/3/1 38/3/1
f 41/4/1 39/4/1 38/4/1
f 42/4/1 39/4/1 41/4/1
f 44/4/1 41/4/1 40/4/1
f 45/4/1 41/4/1 44/4/1
f 46/4/1 43/4/1 42/4/1
f 47/4/1 43/4/1 46/4/1
f 51/1/1 49/1/1 48/1/1
f 52/1/1 49/1/1 51/1/1
f 56/1/1 51/1/1 50/1/1
f 57/1/1 51/1/1 56/1/1
f 58/1/1 56/1/1 55/1/1
f 59/1/1 56/1/1 58/1/1
f 60/1/1 58/1/1 55/1/1
f 61/2/1 54/2/1 53/2/1
f 62/2/1 54/2/1 61/2/1
f 64/1/1 58/1/1 60/1/1
f 65/1/1 58/1/1 64/1/1
f 67/3/1 63/3/1 62/3/1
f 68/3/1 63/3/1 67/3/1
f 72/3/1 67/3/1 66/3/1
f 73/3/1 67/3/1 72/3/1
f 74/3/1 67/3/1 73/3/1
f 75/3/1 72/3/1 71/3/1
f 75/3/1 73/3/1 72/3/1
f 76/3/1 73/3/1 75/3/1
f 78/1/1 70/1/1 69/1/1
f 79/1/1 70/1/1 78/1/1
f 80/3/1 77/3/1 76/3/1
f 81/3/1 77/3/1 80/3/1
f 85/4/1 81/4/1 80/4/1
f 86/4/1 81/4/1 85/4/1
f 87/4/1 83/4/1 82/4/1
f 88/4/1 83/4/1 87/4/1
f 90/4/1 85/4/1 84/4/1
f 91/4/1 85/4/1 90/4/1
f 92/4/1 89/4/1 88/4/1
f 93/4/1 89/4/1 92/4/1
f 96/3/1 95/3/1 94/3/1
f 97/3/1 95/3/1 96/3/1
f 98/3/2 99/3/2 100/3/2
f 100/3/2 99/3/2 101/3/2
f 102/1/2 103/1/2 105/1/2
f 105/1/2 103/1/2 106/1/2
f 104/1/2 105/1/2 110/1/2
f 110/1/2 105/1/2 111/1/2
f 109/1/2 110/1/2 112/1/2
f 112/1/2 110/1/2 113/1/2
f 109/1/2 112/1/2 114/1/2
f 107/2/2 108/2/2 115/2/2
f 115/2/2 108/2/2 116/2/2
f 114/1/2 112/1/2 118/1/2
f 118/1/2 112/1/2 119/1/2
f 116/3/2 117/3/2 121/3/2
f 121/3/2 117/3/2 122/3/2
f 120/3/2 121/3/2 126/3/2
f 126/3/2 121/3/2 127/3/2
f 127/3/2 121/3/2 128/3/2
f 125/3/2 126/3/2 129/3/2
f 126/3/2 127/3/2 129/3/2
f 129/3/2 127/3/2 130/3/2
f 123/1/2 124/1/2 132/1/2
f 132/1/2 124/1/2 133/1/2
f 130/3/2 131/3/2 134/3/2
f 134/3/2 131/3/2 135/3/2
f 134/4/2 135/4/2 139/4/2
f 139/4/2 135/4/2 140/4/2
f 136/4/2 137/4/2 141/4/2
f 141/4/2 137/4/2 142/4/2
f 138/4/2 139/4/2 144/4/2
f 144/4/2 139/4/2 145/4/2
f 142/4/2 143/4/2 146/4/2
f 146/4/2 143/4/2 147/4/2
f 148/3/2 149/3/2 153/3/2
f 153/3/2 149/3/2 154/3/2
f 150/3/2 151/3/2 155/3/2
f 155/3/2 151/3/2 156/3/2
f 156/3/2 151/3/2 157/3/2
f 153/3/2 154/3/2 158/3/2
f 154/3/2 155/3/2 158/3/2
f 155/3/2 156/3/2 158/3/2
f 158/3/2 156/3/2 159/3/2
f 152/4/2 153/4/2 160/4/2
f 153/3/2 158/3/2 160/3/2
f 160/3/2 158/3/2 161/3/2
f 161/3/2 158/3/2 162/3/2
f 162/3/2 158/3/2 163/3/2
f 152/4/2 160/4/2 164/4/2
f 164/4/2 160/4/2 165/4/2
f 162/4/2 163/4/2 166/4/2
f 165/4/2 166/4/2 168/4/2
f 166/4/2 163/4/2 169/4/2
f 168/4/2 166/4/2 169/4/2
f 169/4/2 163/4/2 170/4/2
f 167/3/2 168/3/2 172/3/2
f 168/3/2 169/3/2 172/3/2
f 172/3/2 169/3/2 173/3/2
f 171/3/2 172/3/2 174/3/2
f 172/5/2 173/5/2 175/5/2
f 174/3/2 172/3/2 175/3/2
f 173/3/2 169/3/2 176/3/2
f 175/5/2 173/5/2 176/5/2
f 175/3/2 176/3/2 177/3/2
f 176/3/2 169/3/2 178/3/2
f 177/3/2 176/3/2 178/3/2
f 177/4/2 178/4/2 180/4/2
f 180/4/2 178/4/2 181/4/2
f 179/4/2 180/4/2 183/4/2
f 183/4/2 180/4/2 184/4/2
f 181/4/2 182/4/2 185/4/2
f 185/4/2 182/4/2 186/4/2
f 187/3/2 188/3/2 189/3/2
f 189/3/2 188/3/2 190/3/2
f 191/4/2 192/4/2 193/4/2
f 193/4/2 192/4/2 194/4/2
f 197/3/3 196/3/3 195/3/3
f 198/3/3 196/3/3 197/3/3
f 203/3/3 200/3/3 199/3/3
f 204/3/3 200/3/3 203/3/3
f 205/4/3 202/4/3 201/4/3
f 206/4/3 202/4/3 205/4/3
f 213/3/3 208/3/3 207/3/3
f 214/3/3 208/3/3 213/3/3
f 216/4/3 210/4/3 209/4/3
f 217/4/3 210/4/3 216/4/3
f 218/2/3 212/2/3 211/2/3
f 219/2/3 212/2/3 218/2/3
f 221/3/3 215/3/3 214/3/3
f 222/4/3 216/4/3 215/4/3
f 222/3/3 215/3/3 221/3/3
f 223/4/3 216/4/3 222/4/3
f 225/3/3 221/3/3 220/3/3
f 226/3/3 221/3/3 225/3/3
f 227/4/3 224/4/3 223/4/3
f 228/4/3 224/4/3 227/4/3
f 237/4/3 230/4/3 229/4/3
f 238/4/3 230/4/3 237/4/3
f 239/4/3 232/4/3 231/4/3
f 240/4/3 232/4/3 239/4/3
f 241/3/3 234/3/3 233/3/3
f 242/3/3 234/3/3 241/3/3
f 243/3/3 236/3/3 235/3/3
f 244/4/3 237/4/3 236/4/3
f 244/3/3 236/3/3 243/3/3
f 245/4/3 237/4/3 244/4/3
f 246/4/3 239/4/3 231/4/3
f 247/3/3 241/3/3 240/3/3
f 248/3/3 241/3/3 247/3/3
f 253/4/3 246/4/3 231/4/3
f 253/4/3 247/4/3 246/4/3
f 254/4/3 247/4/3 253/4/3
f 255/3/3 249/3/3 248/3/3
f 256/3/3 249/3/3 255/3/3
f 257/3/3 251/3/3 250/3/3
f 258/4/3 252/4/3 251/4/3
f 258/3/3 251/3/3 257/3/3
f 259/4/3 252/4/3 258/4/3
f 261/4/3 260/4/3 259/4/3
f 262/4/3 260/4/3 261/4/3
f 267/3/3 264/3/3 263/3/3
f 268/3/3 264/3/3 267/3/3
f 270/3/3 266/3/3 265/3/3
f 271/3/3 266/3/3 270/3/3
f 272/4/3 269/4/3 268/4/3
f 273/4/3 269/4/3 272/4/3
f 278/3/3 275/3/3 274/3/3
f 279/3/3 275/3/3 278/3/3
f 281/4/3 277/4/3 276/4/3
f 282/4/3 277/4/3 281/4/3
f 283/3/3 281/3/3 280/3/3
f 284/3/3 281/3/3 283/3/3
f 287/3/3 286/3/3 285/3/3
f 288/3/3 286/3/3 287/3/3
f 289/3/4 290/3/4 295/3/4
f 295/3/4 290/3/4 296/3/4
f 296/3/4 290/3/4 297/3/4
f 291/4/4 292/4/4 300/4/4
f 300/4/4 292/4/4 301/4/4
f 293/3/4 294/3/4 302/3/4
f 302/3/4 294/3/4 303/3/4
f 298/3/4 299/3/4 304/3/4
f 304/3/4 299/3/4 305/3/4
f 299/4/4 300/4/4 306/4/4
f 305/3/4 299/3/4 306/3/4
f 306/4/4 300/4/4 307/4/4
f 305/3/4 306/3/4 311/3/4
f 311/3/4 306/3/4 312/3/4
f 308/3/4 309/3/4 314/3/4
f 314/3/4 309/3/4 315/3/4
f 310/3/4 311/3/4 319/3/4
f 311/3/4 312/3/4 319/3/4
f 312/4/4 313/4/4 320/4/4
f 319/3/4 312/3/4 320/3/4
f 320/4/4 313/4/4 321/4/4
f 317/3/4 318/3/4 323/3/4
f 316/3/4 317/3/4 323/3/4
f 323/3/4 318/3/4 324/3/4
f 321/4/4 322/4/4 325/4/4
f 325/4/4 322/4/4 326/4/4
f 327/3/4 328/3/4 332/3/4
f 328/4/4 329/4/4 333/4/4
f 332/3/4 328/3/4 333/3/4
f 333/4/4 329/4/4 334/4/4
f 334/4/4 329/4/4 335/4/4
f 330/4/4 331/4/4 338/4/4
f 338/4/4 331/4/4 339/4/4
f 335/1/4 336/1/4 342/1/4
f 334/1/4 335/1/4 342/1/4
f 342/1/4 336/1/4 343/1/4
f 343/1/4 336/1/4 344/1/4
f 337/4/4 338/4/4 345/4/4
f 345/4/4 338/4/4 346/4/4
f 340/3/4 341/3/4 348/3/4
f 341/4/4 342/4/4 349/4/4
f 348/3/4 341/3/4 349/3/4
f 342/4/4 343/4/4 349/4/4
f 349/4/4 343/4/4 350/4/4
f 346/4/4 347/4/4 351/4/4
f 351/4/4 347/4/4 352/4/4
f 353/1/4 354/1/4 357/1/4
f 357/1/4 354/1/4 358/1/4
f 355/4/4 356/4/4 359/4/4
f 359/4/4 356/4/4 360/4/4
f 361/3/4 362/3/4 363/3/4
f 363/3/4 362/3/4 364/3/4
f 364/1/4 365/1/4 367/1/4
f 367/1/4 365/1/4 368/1/4
f 366/3/4 367/3/4 369/3/4
f 369/3/4 367/3/4 370/3/4
f 371/3/4 372/3/4 373/3/4
f 373/3/4 372/3/4 374/3/4
f 374/1/4 375/1/4 377/1/4
f 377/1/4 375/1/4 378/1/4
f 376/3/4 377/3/4 379/3/4
f 379/3/4 377/3/4 380/3/4
f 381/1/4 382/1/4 383/1/4
f 383/1/4 382/1/4 384/1/4
f 389/3/5 386/3/5 385/3/5
f 390/3/5 386/3/5 389/3/5
f 391/3/5 388/3/5 387/3/5
f 392/3/5 388/3/5 391/3/5
f 395/3/5 394/3/5 393/3/5
f 396/3/5 394/3/5 395/3/5
f 397/3/5 395/3/5 393/3/5
f 398/1/5 396/1/5 395/1/5
f 398/3/5 395/3/5 397/3/5
f 399/3/5 394/3/5 396/3/5
f 399/1/5 396/1/5 398/1/5
f 400/3/5 394/3/5 399/3/5
f 401/3/5 394/3/5 400/3/5
f 402/1/5 399/1/5 398/1/5
f 402/1/5 400/1/5 399/1/5
f 403/1/5 400/1/5 402/1/5
f 406/4/5 405/4/5 404/4/5
f 407/4/5 405/4/5 406/4/5
f 408/4/5 405/4/5 407/4/5
f 409/4/5 405/4/5 408/4/5
f 411/3/5 408/3/5 407/3/5
f 412/3/5 408/3/5 411/3/5
f 414/3/5 411/3/5 410/3/5
f 414/3/5 413/3/5 412/3/5
f 414/3/5 412/3/5 411/3/5
f 415/3/5 413/3/5 414/3/5
f 418/2/5 417/2/5 416/2/5
f 419/2/5 417/2/5 418/2/5
f 424/3/5 421/3/5 420/3/5
f 425/3/5 421/3/5 424/3/5
f 426/3/5 423/3/5 422/3/5
f 427/3/5 423/3/5 426/3/5
f 431/3/5 429/3/5 428/3/5
f 432/3/5 429/3/5 431/3/5
f 434/3/5 431/3/5 430/3/5
f 435/3/5 431/3/5 434/3/5
f 436/3/5 433/3/5 432/3/5
f 437/3/5 433/3/5 436/3/5
f 440/3/5 439/3/5 438/3/5
f 441/3/5 439/3/5 440/3/5
f 446/3/5 443/3/5 442/3/5
f 447/3/5 443/3/5 446/3/5
f 448/3/5 445/3/5 444/3/5
f 449/3/5 445/3/5 448/3/5
f 452/4/5 451/4/5 450/4/5
f 453/4/5 451/4/5 452/4/5
f 457/4/5 455/4/5 454/4/5
f 458/4/5 455/4/5 457/4/5
f 461/4/5 457/4/5 456/4/5
f 462/4/5 457/4/5 461/4/5
f 463/4/5 459/4/5 458/4/5
f 464/4/5 459/4/5 463/4/5
f 466/4/5 461/4/5 460/4/5
f 467/4/5 461/4/5 466/4/5
f 470/4/5 465/4/5 464/4/5
f 471/4/5 465/4/5 470/4/5
f 472/4/5 468/4/5 467/4/5
f 473/4/5 468/4/5 472/4/5
f 474/4/5 470/4/5 469/4/5
f 475/4/5 470/4/5 474/4/5
f 476/4/5 474/4/5 473/4/5
f 477/4/5 474/4/5 476/4/5
f 478/3/6 479/3/6 482/3/6
f 482/3/6 479/3/6 483/3/6
f 480/3/6 481/3/6 484/3/6
f 484/3/6 481/3/6 485/3/6
f 483/1/6 484/1/6 486/1/6
f 486/1/6 484/1/6 487/1/6
f 488/3/6 489/3/6 492/3/6
f 492/3/6 489/3/6 493/3/6
f 490/3/6 491/3/6 494/3/6
f 494/3/6 491/3/6 495/3/6
f 493/1/6 494/1/6 496/1/6
f 496/1/6 494/1/6 497/1/6
f 498/1/6 499/1/6 500/1/6
f 500/1/6 499/1/6 501/1/6
f 502/2/6 503/2/6 505/2/6
f 505/2/6 503/2/6 506/2/6
f 504/4/6 505/4/6 509/4/6
f 509/4/6 505/4/6 510/4/6
f 506/4/6 507/4/6 511/4/6
f 511/4/6 507/4/6 512/4/6
f 508/3/6 509/3/6 514/3/6
f 514/3/6 509/3/6 515/3/6
f 512/3/6 513/3/6 516/3/6
f 516/3/6 513/3/6 517/3/6
f 518/1/6 519/1/6 520/1/6
f 520/1/6 519/1/6 521/1/6
f 522/4/6 523/4/6 526/4/6
f 526/4/6 523/4/6 527/4/6
f 524/4/6 525/4/6 528/4/6
f 528/4/6 525/4/6 529/4/6
f 530/3/6 531/3/6 533/3/6
f 533/3/6 531/3/6 534/3/6
f 532/3/6 533/3/6 536/3/6
f 536/3/6 533/3/6 537/3/6
f 534/3/6 535/3/6 538/3/6
f 538/3/6 535/3/6 539/3/6
f 540/1/6 541/1/6 542/1/6
f 542/1/6 541/1/6 543/1/6
f 544/4/6 545/4/6 547/4/6
f 547/4/6 545/4/6 548/4/6
f 546/4/6 547/4/6 551/4/6
f 548/4/6 549/4/6 551/4/6
f 547/4/6 548/4/6 551/4/6
f 551/4/6 549/4/6 552/4/6
f 550/4/6 551/4/6 554/4/6
f 552/4/6 553/4/6 554/4/6
f 551/4/6 552/4/6 554/4/6
f 554/4/6 553/4/6 555/4/6
f 555/4/6 553/4/6 556/4/6
f 556/4/6 553/4/6 557/4/6
f 555/4/6 556/4/6 558/4/6
f 558/4/6 556/4/6 559/4/6
f 559/4/6 556/4/6 560/4/6
f 560/4/6 556/4/6 561/4/6
f 559/4/6 560/4/6 562/4/6
f 562/4/6 560/4/6 563/4/6
