# MagicaVoxel @ Ephtracy

# group
o 

# material
mtllib Viking.mtl
usemtl palette

# normals
vn -1 0 0
vn 1 0 0
vn 0 0 1
vn 0 0 -1
vn 0 -1 0
vn 0 1 0

# texcoords
vt 0.669922 0.5
vt 0.673828 0.5
vt 0.677734 0.5
vt 0.974609 0.5
vt 0.982422 0.5
vt 0.986328 0.5
vt 0.990234 0.5
vt 0.994141 0.5

# verts
v -0.4 1.2 0.1
v -0.4 1.2 0
v -0.4 1.4 0.1
v -0.4 1.4 0
v -0.3 0.3 0.1
v -0.3 0.3 0
v -0.3 0.5 0.1
v -0.3 0.5 0
v -0.3 0.9 0.3
v -0.3 0.9 -0.1
v -0.3 1 0.3
v -0.3 1 -0.1
v -0.3 1.1 0.2
v -0.3 1.1 0
v -0.3 1.2 0.2
v -0.3 1.2 0.1
v -0.3 1.2 0
v -0.2 0 0.1
v -0.2 0 0
v -0.2 0 -0.2
v -0.2 0 -0.4
v -0.2 0.1 0.2
v -0.2 0.1 0.1
v -0.2 0.1 0
v -0.2 0.1 -0.2
v -0.2 0.1 -0.3
v -0.2 0.1 -0.4
v -0.2 0.2 -0.1
v -0.2 0.2 -0.3
v -0.2 0.3 0.1
v -0.2 0.3 0
v -0.2 0.5 0.2
v -0.2 0.5 0.1
v -0.2 0.5 0
v -0.2 0.6 0.2
v -0.2 0.6 0.1
v -0.2 0.6 0
v -0.2 0.6 -0.1
v -0.2 0.7 0.3
v -0.2 0.7 0.2
v -0.2 0.7 0.1
v -0.2 0.8 0.3
v -0.2 0.8 0.2
v -0.2 0.8 0.1
v -0.2 0.9 0.4
v -0.2 0.9 0.3
v -0.2 0.9 0.2
v -0.2 0.9 0
v -0.2 0.9 -0.1
v -0.2 0.9 -0.2
v -0.2 1 0.4
v -0.2 1 0.3
v -0.2 1 0
v -0.2 1 -0.1
v -0.2 1 -0.2
v -0.2 1.1 0.3
v -0.2 1.1 0.2
v -0.2 1.1 0
v -0.2 1.1 -0.1
v -0.2 1.2 0.2
v -0.2 1.2 0.1
v -0.2 1.3 0.2
v -0.2 1.3 0.1
v -0.1 0 -0.4
v -0.1 0 -0.6
v -0.1 0.1 -0.3
v -0.1 0.1 -0.4
v -0.1 0.1 -0.6
v -0.1 0.2 0.3
v -0.1 0.2 0.2
v -0.1 0.2 -0.1
v -0.1 0.2 -0.3
v -0.1 0.2 -0.4
v -0.1 0.3 -0.2
v -0.1 0.3 -0.3
v -0.1 0.5 0.3
v -0.1 0.5 0.2
v -0.1 0.5 0.1
v -0.1 0.5 -0.1
v -0.1 0.5 -0.2
v -0.1 0.6 0.4
v -0.1 0.6 0.2
v -0.1 0.6 0.1
v -0.1 0.6 0
v -0.1 0.6 -0.1
v -0.1 0.7 0.5
v -0.1 0.7 0.4
v -0.1 0.7 0.3
v -0.1 0.7 0.2
v -0.1 0.8 0.5
v -0.1 0.8 0.3
v -0.1 0.8 0.2
v -0.1 0.8 0
v -0.1 0.8 -0.1
v -0.1 0.9 0.3
v -0.1 0.9 0.2
v -0.1 1.1 0.3
v -0.1 1.1 0.2
v -0.1 1.1 0
v -0.1 1.1 -0.1
v -0.1 1.2 0.3
v -0.1 1.2 0.2
v -0.1 1.2 0
v -0.1 1.2 -0.1
v 0.1 0 0.1
v 0.1 0 0
v 0.1 0.1 0.1
v 0.1 0.1 0
v 0.1 1.2 0.2
v 0.1 1.2 0
v 0.1 1.3 0.2
v 0.1 1.3 0
v 0.3 1.3 0.1
v 0.3 1.3 0
v 0.3 1.4 0.1
v 0.3 1.4 0
v -0.3 1.3 0.1
v -0.3 1.3 0
v -0.3 1.4 0.1
v -0.3 1.4 0
v -0.1 0 0.1
v -0.1 0 0
v -0.1 0.1 0.1
v -0.1 0.1 0
v -0.1 1.2 0.2
v -0.1 1.2 0
v -0.1 1.3 0.2
v -0.1 1.3 0
v 0.1 0 -0.4
v 0.1 0 -0.6
v 0.1 0.1 -0.3
v 0.1 0.1 -0.4
v 0.1 0.1 -0.6
v 0.1 0.2 0.3
v 0.1 0.2 0.2
v 0.1 0.2 -0.1
v 0.1 0.2 -0.3
v 0.1 0.2 -0.4
v 0.1 0.3 -0.2
v 0.1 0.3 -0.3
v 0.1 0.5 0.3
v 0.1 0.5 0.2
v 0.1 0.5 0.1
v 0.1 0.5 -0.1
v 0.1 0.5 -0.2
v 0.1 0.6 0.4
v 0.1 0.6 0.2
v 0.1 0.6 0.1
v 0.1 0.6 0
v 0.1 0.6 -0.1
v 0.1 0.7 0.5
v 0.1 0.7 0.4
v 0.1 0.7 0.3
v 0.1 0.7 0.2
v 0.1 0.8 0.5
v 0.1 0.8 0.3
v 0.1 0.8 0.2
v 0.1 0.8 0
v 0.1 0.8 -0.1
v 0.1 0.9 0.3
v 0.1 0.9 0.2
v 0.1 1.1 0.3
v 0.1 1.1 0.2
v 0.1 1.1 0
v 0.1 1.1 -0.1
v 0.1 1.2 0.3
v 0.1 1.2 0.2
v 0.1 1.2 0
v 0.1 1.2 -0.1
v 0.2 0 0.1
v 0.2 0 0
v 0.2 0 -0.2
v 0.2 0 -0.4
v 0.2 0.1 0.2
v 0.2 0.1 0.1
v 0.2 0.1 0
v 0.2 0.1 -0.2
v 0.2 0.1 -0.3
v 0.2 0.1 -0.4
v 0.2 0.2 -0.1
v 0.2 0.2 -0.3
v 0.2 0.3 0.1
v 0.2 0.3 0
v 0.2 0.5 0.2
v 0.2 0.5 0.1
v 0.2 0.5 0
v 0.2 0.6 0.2
v 0.2 0.6 0.1
v 0.2 0.6 0
v 0.2 0.6 -0.1
v 0.2 0.7 0.3
v 0.2 0.7 0.2
v 0.2 0.7 0.1
v 0.2 0.8 0.3
v 0.2 0.8 0.2
v 0.2 0.8 0.1
v 0.2 0.9 0.4
v 0.2 0.9 0.3
v 0.2 0.9 0.2
v 0.2 0.9 0
v 0.2 0.9 -0.1
v 0.2 0.9 -0.2
v 0.2 1 0.4
v 0.2 1 0.3
v 0.2 1 0.2
v 0.2 1 0.1
v 0.2 1 -0.1
v 0.2 1 -0.2
v 0.2 1.1 0.3
v 0.2 1.1 0.2
v 0.2 1.1 0.1
v 0.2 1.1 0
v 0.2 1.1 -0.1
v 0.2 1.2 0.2
v 0.2 1.2 0.1
v 0.2 1.3 0.2
v 0.2 1.3 0.1
v 0.3 0.3 0.1
v 0.3 0.3 0
v 0.3 0.5 0.1
v 0.3 0.5 0
v 0.3 0.9 0.3
v 0.3 0.9 -0.1
v 0.3 1 0.3
v 0.3 1 -0.1
v 0.3 1.1 0.2
v 0.3 1.1 0
v 0.3 1.2 0.2
v 0.3 1.2 0.1
v 0.3 1.2 0
v 0.4 1.2 0.1
v 0.4 1.2 0
v 0.4 1.4 0.1
v 0.4 1.4 0
v -0.1 0.7 0.5
v -0.1 0.8 0.5
v 0.1 0.7 0.5
v 0.1 0.8 0.5
v -0.2 0.9 0.4
v -0.2 1 0.4
v -0.1 0.6 0.4
v -0.1 0.7 0.4
v 0.1 0.6 0.4
v 0.1 0.7 0.4
v 0.2 0.9 0.4
v 0.2 1 0.4
v -0.3 0.9 0.3
v -0.3 1 0.3
v -0.2 0.7 0.3
v -0.2 0.8 0.3
v -0.2 0.9 0.3
v -0.2 1 0.3
v -0.2 1.1 0.3
v -0.1 0.2 0.3
v -0.1 0.5 0.3
v -0.1 0.7 0.3
v -0.1 0.8 0.3
v -0.1 0.9 0.3
v -0.1 1 0.3
v -0.1 1.1 0.3
v -0.1 1.2 0.3
v 0 1 0.3
v 0 1.1 0.3
v 0 1.2 0.3
v 0.1 0.2 0.3
v 0.1 0.5 0.3
v 0.1 0.7 0.3
v 0.1 0.8 0.3
v 0.1 0.9 0.3
v 0.1 1.1 0.3
v 0.1 1.2 0.3
v 0.2 0.7 0.3
v 0.2 0.8 0.3
v 0.2 0.9 0.3
v 0.2 1 0.3
v 0.2 1.1 0.3
v 0.3 0.9 0.3
v 0.3 1 0.3
v -0.3 1.1 0.2
v -0.3 1.2 0.2
v -0.2 0.1 0.2
v -0.2 0.5 0.2
v -0.2 0.6 0.2
v -0.2 0.7 0.2
v -0.2 0.8 0.2
v -0.2 0.9 0.2
v -0.2 1.1 0.2
v -0.2 1.2 0.2
v -0.2 1.3 0.2
v -0.1 0.2 0.2
v -0.1 0.5 0.2
v -0.1 0.6 0.2
v -0.1 0.7 0.2
v -0.1 0.8 0.2
v -0.1 0.9 0.2
v -0.1 1.1 0.2
v -0.1 1.2 0.2
v -0.1 1.3 0.2
v 0.1 0.2 0.2
v 0.1 0.5 0.2
v 0.1 0.6 0.2
v 0.1 0.7 0.2
v 0.1 0.8 0.2
v 0.1 0.9 0.2
v 0.1 1.1 0.2
v 0.1 1.2 0.2
v 0.1 1.3 0.2
v 0.2 0.1 0.2
v 0.2 0.5 0.2
v 0.2 0.6 0.2
v 0.2 0.7 0.2
v 0.2 0.8 0.2
v 0.2 0.9 0.2
v 0.2 1.1 0.2
v 0.2 1.2 0.2
v 0.2 1.3 0.2
v 0.3 1.1 0.2
v 0.3 1.2 0.2
v -0.4 1.2 0.1
v -0.4 1.4 0.1
v -0.3 0.3 0.1
v -0.3 0.5 0.1
v -0.3 1.2 0.1
v -0.3 1.3 0.1
v -0.3 1.4 0.1
v -0.2 0 0.1
v -0.2 0.1 0.1
v -0.2 0.3 0.1
v -0.2 0.5 0.1
v -0.2 0.6 0.1
v -0.2 1.2 0.1
v -0.2 1.3 0.1
v -0.1 0 0.1
v -0.1 0.1 0.1
v -0.1 0.5 0.1
v -0.1 0.6 0.1
v 0.1 0 0.1
v 0.1 0.1 0.1
v 0.1 0.5 0.1
v 0.1 0.6 0.1
v 0.2 0 0.1
v 0.2 0.1 0.1
v 0.2 0.3 0.1
v 0.2 0.5 0.1
v 0.2 0.6 0.1
v 0.2 1.2 0.1
v 0.2 1.3 0.1
v 0.3 0.3 0.1
v 0.3 0.5 0.1
v 0.3 1.2 0.1
v 0.3 1.3 0.1
v 0.3 1.4 0.1
v 0.4 1.2 0.1
v 0.4 1.4 0.1
v -0.2 0 -0.2
v -0.2 0.1 -0.2
v 0.2 0 -0.2
v 0.2 0.1 -0.2
v -0.4 1.2 0
v -0.4 1.4 0
v -0.3 0.3 0
v -0.3 0.5 0
v -0.3 1.1 0
v -0.3 1.2 0
v -0.3 1.3 0
v -0.3 1.4 0
v -0.2 0 0
v -0.2 0.1 0
v -0.2 0.3 0
v -0.2 0.5 0
v -0.2 0.6 0
v -0.2 0.9 0
v -0.2 1.1 0
v -0.2 1.2 0
v -0.1 0 0
v -0.1 0.1 0
v -0.1 0.6 0
v -0.1 0.8 0
v -0.1 1.1 0
v -0.1 1.2 0
v -0.1 1.3 0
v 0.1 0 0
v 0.1 0.1 0
v 0.1 0.6 0
v 0.1 0.8 0
v 0.1 1.1 0
v 0.1 1.2 0
v 0.1 1.3 0
v 0.2 0 0
v 0.2 0.1 0
v 0.2 0.3 0
v 0.2 0.5 0
v 0.2 0.6 0
v 0.2 0.9 0
v 0.2 1.1 0
v 0.2 1.2 0
v 0.3 0.3 0
v 0.3 0.5 0
v 0.3 1.1 0
v 0.3 1.2 0
v 0.3 1.3 0
v 0.3 1.4 0
v 0.4 1.2 0
v 0.4 1.4 0
v -0.3 0.9 -0.1
v -0.3 1 -0.1
v -0.2 0.2 -0.1
v -0.2 0.6 -0.1
v -0.2 0.9 -0.1
v -0.2 1 -0.1
v -0.2 1.1 -0.1
v -0.1 0.2 -0.1
v -0.1 0.5 -0.1
v -0.1 0.6 -0.1
v -0.1 0.8 -0.1
v -0.1 1 -0.1
v -0.1 1.1 -0.1
v -0.1 1.2 -0.1
v 0 1.1 -0.1
v 0 1.2 -0.1
v 0.1 0.2 -0.1
v 0.1 0.5 -0.1
v 0.1 0.6 -0.1
v 0.1 0.8 -0.1
v 0.1 1.1 -0.1
v 0.1 1.2 -0.1
v 0.2 0.2 -0.1
v 0.2 0.6 -0.1
v 0.2 0.9 -0.1
v 0.2 1 -0.1
v 0.2 1.1 -0.1
v 0.3 0.9 -0.1
v 0.3 1 -0.1
v -0.2 0.9 -0.2
v -0.2 1 -0.2
v -0.1 0.3 -0.2
v -0.1 0.5 -0.2
v 0.1 0.3 -0.2
v 0.1 0.5 -0.2
v 0.2 0.9 -0.2
v 0.2 1 -0.2
v -0.2 0.1 -0.3
v -0.2 0.2 -0.3
v -0.1 0.1 -0.3
v -0.1 0.2 -0.3
v -0.1 0.3 -0.3
v 0.1 0.1 -0.3
v 0.1 0.2 -0.3
v 0.1 0.3 -0.3
v 0.2 0.1 -0.3
v 0.2 0.2 -0.3
v -0.2 0 -0.4
v -0.2 0.1 -0.4
v -0.1 0 -0.4
v -0.1 0.1 -0.4
v -0.1 0.2 -0.4
v 0.1 0 -0.4
v 0.1 0.1 -0.4
v 0.1 0.2 -0.4
v 0.2 0 -0.4
v 0.2 0.1 -0.4
v -0.1 0 -0.6
v -0.1 0.1 -0.6
v 0.1 0 -0.6
v 0.1 0.1 -0.6
v -0.2 0 0.1
v -0.1 0 0.1
v 0.1 0 0.1
v 0.2 0 0.1
v -0.2 0 0
v -0.1 0 0
v 0.1 0 0
v 0.2 0 0
v -0.2 0 -0.2
v 0.2 0 -0.2
v -0.1 0 -0.3
v 0 0 -0.3
v -0.2 0 -0.4
v -0.1 0 -0.4
v 0 0 -0.4
v 0.1 0 -0.4
v 0.2 0 -0.4
v -0.1 0 -0.6
v 0.1 0 -0.6
v -0.2 0.1 0.2
v 0.2 0.1 0.2
v -0.2 0.1 0.1
v -0.1 0.1 0.1
v 0.1 0.1 0.1
v 0.2 0.1 0.1
v -0.2 0.1 0
v -0.1 0.1 0
v 0.1 0.1 0
v 0.2 0.1 0
v -0.2 0.1 -0.2
v 0.2 0.1 -0.2
v -0.1 0.2 0.3
v 0.1 0.2 0.3
v -0.1 0.2 0.2
v 0.1 0.2 0.2
v -0.3 0.3 0.1
v -0.2 0.3 0.1
v 0.2 0.3 0.1
v 0.3 0.3 0.1
v -0.3 0.3 0
v -0.2 0.3 0
v 0.2 0.3 0
v 0.3 0.3 0
v -0.1 0.6 0.4
v 0.1 0.6 0.4
v -0.2 0.6 0.2
v -0.1 0.6 0.2
v 0.1 0.6 0.2
v 0.2 0.6 0.2
v -0.2 0.6 0.1
v -0.1 0.6 0.1
v 0.1 0.6 0.1
v 0.2 0.6 0.1
v -0.1 0.7 0.5
v 0.1 0.7 0.5
v -0.1 0.7 0.4
v 0.1 0.7 0.4
v -0.2 0.7 0.3
v -0.1 0.7 0.3
v 0.1 0.7 0.3
v 0.2 0.7 0.3
v -0.2 0.7 0.2
v -0.1 0.7 0.2
v 0.1 0.7 0.2
v 0.2 0.7 0.2
v -0.2 0.9 0.4
v 0.2 0.9 0.4
v -0.3 0.9 0.3
v -0.2 0.9 0.3
v -0.1 0.9 0.3
v 0.1 0.9 0.3
v 0.2 0.9 0.3
v 0.3 0.9 0.3
v -0.2 0.9 0.2
v -0.1 0.9 0.2
v 0.1 0.9 0.2
v 0.2 0.9 0.2
v -0.2 0.9 0
v 0.2 0.9 0
v -0.3 0.9 -0.1
v -0.2 0.9 -0.1
v 0.2 0.9 -0.1
v 0.3 0.9 -0.1
v -0.2 0.9 -0.2
v 0.2 0.9 -0.2
v -0.3 1.1 0.2
v -0.2 1.1 0.2
v 0.2 1.1 0.2
v 0.3 1.1 0.2
v 0.2 1.1 0.1
v -0.3 1.1 0
v -0.2 1.1 0
v 0.2 1.1 0
v 0.3 1.1 0
v -0.4 1.2 0.1
v -0.3 1.2 0.1
v 0.3 1.2 0.1
v 0.4 1.2 0.1
v -0.4 1.2 0
v -0.3 1.2 0
v 0.3 1.2 0
v 0.4 1.2 0
v -0.2 0.1 -0.3
v -0.1 0.1 -0.3
v 0.1 0.1 -0.3
v 0.2 0.1 -0.3
v -0.2 0.1 -0.4
v -0.1 0.1 -0.4
v 0.1 0.1 -0.4
v 0.2 0.1 -0.4
v -0.1 0.1 -0.6
v 0.1 0.1 -0.6
v -0.2 0.2 -0.1
v -0.1 0.2 -0.1
v 0.1 0.2 -0.1
v 0.2 0.2 -0.1
v -0.2 0.2 -0.3
v -0.1 0.2 -0.3
v 0.1 0.2 -0.3
v 0.2 0.2 -0.3
v -0.1 0.2 -0.4
v 0.1 0.2 -0.4
v -0.1 0.3 -0.2
v 0.1 0.3 -0.2
v -0.1 0.3 -0.3
v 0.1 0.3 -0.3
v -0.1 0.5 0.3
v 0.1 0.5 0.3
v -0.2 0.5 0.2
v -0.1 0.5 0.2
v 0.1 0.5 0.2
v 0.2 0.5 0.2
v -0.3 0.5 0.1
v -0.2 0.5 0.1
v -0.1 0.5 0.1
v 0.1 0.5 0.1
v 0.2 0.5 0.1
v 0.3 0.5 0.1
v -0.3 0.5 0
v -0.2 0.5 0
v 0.2 0.5 0
v 0.3 0.5 0
v -0.1 0.5 -0.1
v 0.1 0.5 -0.1
v -0.1 0.5 -0.2
v 0.1 0.5 -0.2
v -0.2 0.6 0
v -0.1 0.6 0
v 0.1 0.6 0
v 0.2 0.6 0
v -0.2 0.6 -0.1
v -0.1 0.6 -0.1
v 0.1 0.6 -0.1
v 0.2 0.6 -0.1
v -0.1 0.8 0.5
v 0.1 0.8 0.5
v -0.2 0.8 0.3
v -0.1 0.8 0.3
v 0.1 0.8 0.3
v 0.2 0.8 0.3
v -0.2 0.8 0.2
v -0.1 0.8 0.2
v 0.1 0.8 0.2
v 0.2 0.8 0.2
v -0.1 0.8 0
v 0.1 0.8 0
v -0.1 0.8 -0.1
v 0.1 0.8 -0.1
v -0.2 1 0.4
v 0.2 1 0.4
v -0.3 1 0.3
v -0.2 1 0.3
v -0.1 1 0.3
v 0 1 0.3
v 0.2 1 0.3
v 0.3 1 0.3
v 0.2 1 0.2
v 0.2 1 0.1
v -0.2 1 0
v -0.3 1 -0.1
v -0.2 1 -0.1
v -0.1 1 -0.1
v 0.2 1 -0.1
v 0.3 1 -0.1
v -0.2 1 -0.2
v 0.2 1 -0.2
v -0.2 1.1 0.3
v -0.1 1.1 0.3
v 0.1 1.1 0.3
v 0.2 1.1 0.3
v -0.2 1.1 0.2
v -0.1 1.1 0.2
v 0.1 1.1 0.2
v 0.2 1.1 0.2
v -0.2 1.1 0
v -0.1 1.1 0
v 0.1 1.1 0
v 0.2 1.1 0
v -0.2 1.1 -0.1
v -0.1 1.1 -0.1
v 0.1 1.1 -0.1
v 0.2 1.1 -0.1
v -0.1 1.2 0.3
v 0 1.2 0.3
v 0.1 1.2 0.3
v -0.3 1.2 0.2
v -0.2 1.2 0.2
v -0.1 1.2 0.2
v 0 1.2 0.2
v 0.1 1.2 0.2
v 0.2 1.2 0.2
v 0.3 1.2 0.2
v -0.3 1.2 0.1
v -0.2 1.2 0.1
v 0.2 1.2 0.1
v 0.3 1.2 0.1
v -0.1 1.2 0
v 0 1.2 0
v 0.1 1.2 0
v -0.1 1.2 -0.1
v 0 1.2 -0.1
v 0.1 1.2 -0.1
v -0.2 1.3 0.2
v -0.1 1.3 0.2
v 0.1 1.3 0.2
v 0.2 1.3 0.2
v -0.3 1.3 0.1
v -0.2 1.3 0.1
v 0.2 1.3 0.1
v 0.3 1.3 0.1
v -0.3 1.3 0
v -0.1 1.3 0
v 0.1 1.3 0
v 0.3 1.3 0
v -0.4 1.4 0.1
v -0.3 1.4 0.1
v 0.3 1.4 0.1
v 0.4 1.4 0.1
v -0.4 1.4 0
v -0.3 1.4 0
v 0.3 1.4 0
v 0.4 1.4 0

# faces
f 3/4/1 2/4/1 1/4/1
f 4/4/1 2/4/1 3/4/1
f 7/3/1 6/3/1 5/3/1
f 8/3/1 6/3/1 7/3/1
f 11/7/1 10/7/1 9/7/1
f 12/7/1 10/7/1 11/7/1
f 15/4/1 14/4/1 13/4/1
f 16/4/1 14/4/1 15/4/1
f 17/4/1 14/4/1 16/4/1
f 23/3/1 19/3/1 18/3/1
f 24/3/1 19/3/1 23/3/1
f 25/3/1 21/3/1 20/3/1
f 26/3/1 21/3/1 25/3/1
f 27/3/1 21/3/1 26/3/1
f 28/3/1 24/3/1 23/3/1
f 28/3/1 23/3/1 22/3/1
f 28/3/1 26/3/1 25/3/1
f 28/3/1 25/3/1 24/3/1
f 29/3/1 26/3/1 28/3/1
f 30/3/1 28/3/1 22/3/1
f 31/3/1 28/3/1 30/3/1
f 32/3/1 30/3/1 22/3/1
f 33/3/1 30/3/1 32/3/1
f 34/3/1 28/3/1 31/3/1
f 36/3/1 34/3/1 33/3/1
f 37/3/1 28/3/1 34/3/1
f 37/3/1 34/3/1 36/3/1
f 38/3/1 28/3/1 37/3/1
f 40/3/1 36/3/1 35/3/1
f 40/3/1 37/3/1 36/3/1
f 41/3/1 37/3/1 40/3/1
f 42/3/1 40/3/1 39/3/1
f 43/8/1 41/8/1 40/8/1
f 43/3/1 40/3/1 42/3/1
f 44/3/1 37/3/1 41/3/1
f 44/8/1 41/8/1 43/8/1
f 47/3/1 44/3/1 43/3/1
f 48/3/1 37/3/1 44/3/1
f 48/3/1 44/3/1 47/3/1
f 51/7/1 46/7/1 45/7/1
f 52/7/1 46/7/1 51/7/1
f 54/7/1 50/7/1 49/7/1
f 55/7/1 50/7/1 54/7/1
f 56/6/1 53/6/1 52/6/1
f 57/6/1 53/6/1 56/6/1
f 58/5/1 54/5/1 53/5/1
f 58/6/1 53/6/1 57/6/1
f 59/5/1 54/5/1 58/5/1
f 62/4/1 61/4/1 60/4/1
f 63/4/1 61/4/1 62/4/1
f 67/1/1 65/1/1 64/1/1
f 68/1/1 65/1/1 67/1/1
f 72/1/1 67/1/1 66/1/1
f 73/1/1 67/1/1 72/1/1
f 74/1/1 72/1/1 71/1/1
f 75/1/1 72/1/1 74/1/1
f 76/2/1 70/2/1 69/2/1
f 77/2/1 70/2/1 76/2/1
f 79/1/1 74/1/1 71/1/1
f 80/1/1 74/1/1 79/1/1
f 82/3/1 78/3/1 77/3/1
f 83/3/1 78/3/1 82/3/1
f 87/3/1 82/3/1 81/3/1
f 88/3/1 82/3/1 87/3/1
f 89/3/1 82/3/1 88/3/1
f 90/3/1 87/3/1 86/3/1
f 90/3/1 88/3/1 87/3/1
f 91/3/1 88/3/1 90/3/1
f 93/1/1 85/1/1 84/1/1
f 94/1/1 85/1/1 93/1/1
f 95/3/1 92/3/1 91/3/1
f 96/3/1 92/3/1 95/3/1
f 101/6/1 98/6/1 97/6/1
f 102/6/1 98/6/1 101/6/1
f 103/6/1 100/6/1 99/6/1
f 104/6/1 100/6/1 103/6/1
f 107/3/1 106/3/1 105/3/1
f 108/3/1 106/3/1 107/3/1
f 111/4/1 110/4/1 109/4/1
f 112/4/1 110/4/1 111/4/1
f 115/4/1 114/4/1 113/4/1
f 116/4/1 114/4/1 115/4/1
f 117/4/2 118/4/2 119/4/2
f 119/4/2 118/4/2 120/4/2
f 121/3/2 122/3/2 123/3/2
f 123/3/2 122/3/2 124/3/2
f 125/4/2 126/4/2 127/4/2
f 127/4/2 126/4/2 128/4/2
f 129/1/2 130/1/2 132/1/2
f 132/1/2 130/1/2 133/1/2
f 131/1/2 132/1/2 137/1/2
f 137/1/2 132/1/2 138/1/2
f 136/1/2 137/1/2 139/1/2
f 139/1/2 137/1/2 140/1/2
f 134/2/2 135/2/2 141/2/2
f 141/2/2 135/2/2 142/2/2
f 136/1/2 139/1/2 144/1/2
f 144/1/2 139/1/2 145/1/2
f 142/3/2 143/3/2 147/3/2
f 147/3/2 143/3/2 148/3/2
f 146/3/2 147/3/2 152/3/2
f 152/3/2 147/3/2 153/3/2
f 153/3/2 147/3/2 154/3/2
f 151/3/2 152/3/2 155/3/2
f 152/3/2 153/3/2 155/3/2
f 155/3/2 153/3/2 156/3/2
f 149/1/2 150/1/2 158/1/2
f 158/1/2 150/1/2 159/1/2
f 156/3/2 157/3/2 160/3/2
f 160/3/2 157/3/2 161/3/2
f 162/5/2 163/5/2 166/5/2
f 166/5/2 163/5/2 167/5/2
f 164/5/2 165/5/2 168/5/2
f 168/5/2 165/5/2 169/5/2
f 170/3/2 171/3/2 175/3/2
f 175/3/2 171/3/2 176/3/2
f 172/3/2 173/3/2 177/3/2
f 177/3/2 173/3/2 178/3/2
f 178/3/2 173/3/2 179/3/2
f 175/3/2 176/3/2 180/3/2
f 174/3/2 175/3/2 180/3/2
f 177/3/2 178/3/2 180/3/2
f 176/3/2 177/3/2 180/3/2
f 180/3/2 178/3/2 181/3/2
f 174/3/2 180/3/2 182/3/2
f 182/3/2 180/3/2 183/3/2
f 174/3/2 182/3/2 184/3/2
f 184/3/2 182/3/2 185/3/2
f 183/3/2 180/3/2 186/3/2
f 185/3/2 186/3/2 188/3/2
f 186/3/2 180/3/2 189/3/2
f 188/3/2 186/3/2 189/3/2
f 189/3/2 180/3/2 190/3/2
f 187/3/2 188/3/2 192/3/2
f 188/3/2 189/3/2 192/3/2
f 192/3/2 189/3/2 193/3/2
f 191/3/2 192/3/2 194/3/2
f 192/8/2 193/8/2 195/8/2
f 194/3/2 192/3/2 195/3/2
f 193/3/2 189/3/2 196/3/2
f 195/8/2 193/8/2 196/8/2
f 195/3/2 196/3/2 199/3/2
f 196/3/2 189/3/2 200/3/2
f 199/3/2 196/3/2 200/3/2
f 197/7/2 198/7/2 203/7/2
f 203/7/2 198/7/2 204/7/2
f 201/7/2 202/7/2 207/7/2
f 207/7/2 202/7/2 208/7/2
f 204/6/2 205/6/2 209/6/2
f 205/5/2 206/5/2 210/5/2
f 209/6/2 205/6/2 210/6/2
f 206/6/2 207/6/2 211/6/2
f 210/5/2 206/5/2 211/5/2
f 211/6/2 207/6/2 212/6/2
f 212/6/2 207/6/2 213/6/2
f 214/4/2 215/4/2 216/4/2
f 216/4/2 215/4/2 217/4/2
f 218/3/2 219/3/2 220/3/2
f 220/3/2 219/3/2 221/3/2
f 222/7/2 223/7/2 224/7/2
f 224/7/2 223/7/2 225/7/2
f 226/4/2 227/4/2 228/4/2
f 228/4/2 227/4/2 229/4/2
f 229/4/2 227/4/2 230/4/2
f 231/4/2 232/4/2 233/4/2
f 233/4/2 232/4/2 234/4/2
f 237/3/3 236/3/3 235/3/3
f 238/3/3 236/3/3 237/3/3
f 243/3/3 242/3/3 241/3/3
f 244/3/3 242/3/3 243/3/3
f 245/7/3 240/7/3 239/7/3
f 246/7/3 240/7/3 245/7/3
f 251/7/3 248/7/3 247/7/3
f 252/7/3 248/7/3 251/7/3
f 256/3/3 250/3/3 249/3/3
f 257/3/3 250/3/3 256/3/3
f 259/6/3 253/6/3 252/6/3
f 260/6/3 253/6/3 259/6/3
f 262/5/3 260/5/3 259/5/3
f 263/6/3 261/6/3 260/6/3
f 263/5/3 260/5/3 262/5/3
f 264/6/3 261/6/3 263/6/3
f 265/2/3 255/2/3 254/2/3
f 266/2/3 255/2/3 265/2/3
f 268/3/3 258/3/3 257/3/3
f 269/3/3 258/3/3 268/3/3
f 270/6/3 263/6/3 262/6/3
f 270/5/3 264/5/3 263/5/3
f 271/5/3 264/5/3 270/5/3
f 272/3/3 268/3/3 267/3/3
f 273/3/3 268/3/3 272/3/3
f 275/6/3 270/6/3 262/6/3
f 276/6/3 270/6/3 275/6/3
f 277/7/3 275/7/3 274/7/3
f 278/7/3 275/7/3 277/7/3
f 287/4/3 280/4/3 279/4/3
f 288/4/3 280/4/3 287/4/3
f 290/3/3 282/3/3 281/3/3
f 291/3/3 282/3/3 290/3/3
f 292/3/3 284/3/3 283/3/3
f 293/3/3 284/3/3 292/3/3
f 294/3/3 286/3/3 285/3/3
f 295/3/3 286/3/3 294/3/3
f 296/6/3 288/6/3 287/6/3
f 297/4/3 289/4/3 288/4/3
f 297/6/3 288/6/3 296/6/3
f 298/4/3 289/4/3 297/4/3
f 299/3/3 290/3/3 281/3/3
f 300/3/3 292/3/3 291/3/3
f 301/3/3 292/3/3 300/3/3
f 308/3/3 299/3/3 281/3/3
f 308/3/3 300/3/3 299/3/3
f 309/3/3 300/3/3 308/3/3
f 310/3/3 302/3/3 301/3/3
f 311/3/3 302/3/3 310/3/3
f 312/3/3 304/3/3 303/3/3
f 313/3/3 304/3/3 312/3/3
f 314/6/3 306/6/3 305/6/3
f 315/4/3 307/4/3 306/4/3
f 315/6/3 306/6/3 314/6/3
f 316/4/3 307/4/3 315/4/3
f 317/4/3 315/4/3 314/4/3
f 318/4/3 315/4/3 317/4/3
f 323/4/3 320/4/3 319/4/3
f 324/4/3 320/4/3 323/4/3
f 325/4/3 320/4/3 324/4/3
f 328/3/3 322/3/3 321/3/3
f 329/3/3 322/3/3 328/3/3
f 331/4/3 324/4/3 323/4/3
f 332/4/3 324/4/3 331/4/3
f 333/3/3 327/3/3 326/3/3
f 334/3/3 327/3/3 333/3/3
f 335/3/3 330/3/3 329/3/3
f 336/3/3 330/3/3 335/3/3
f 341/3/3 338/3/3 337/3/3
f 342/3/3 338/3/3 341/3/3
f 344/3/3 340/3/3 339/3/3
f 345/3/3 340/3/3 344/3/3
f 348/3/3 344/3/3 343/3/3
f 349/3/3 344/3/3 348/3/3
f 350/4/3 347/4/3 346/4/3
f 351/4/3 347/4/3 350/4/3
f 353/4/3 351/4/3 350/4/3
f 353/4/3 352/4/3 351/4/3
f 354/4/3 352/4/3 353/4/3
f 357/3/3 356/3/3 355/3/3
f 358/3/3 356/3/3 357/3/3
f 359/4/4 360/4/4 364/4/4
f 364/4/4 360/4/4 365/4/4
f 365/4/4 360/4/4 366/4/4
f 361/3/4 362/3/4 369/3/4
f 369/3/4 362/3/4 370/3/4
f 363/4/4 364/4/4 373/4/4
f 364/4/4 365/4/4 373/4/4
f 373/4/4 365/4/4 374/4/4
f 367/3/4 368/3/4 375/3/4
f 375/3/4 368/3/4 376/3/4
f 371/3/4 372/3/4 377/3/4
f 377/3/4 372/3/4 378/3/4
f 373/6/4 374/6/4 379/6/4
f 374/4/4 365/4/4 380/4/4
f 379/6/4 374/6/4 380/6/4
f 380/4/4 365/4/4 381/4/4
f 378/3/4 372/3/4 385/3/4
f 382/3/4 383/3/4 389/3/4
f 389/3/4 383/3/4 390/3/4
f 384/3/4 385/3/4 393/3/4
f 385/3/4 372/3/4 394/3/4
f 393/3/4 385/3/4 394/3/4
f 386/6/4 387/6/4 395/6/4
f 387/4/4 388/4/4 396/4/4
f 395/6/4 387/6/4 396/6/4
f 391/3/4 392/3/4 397/3/4
f 397/3/4 392/3/4 398/3/4
f 395/4/4 396/4/4 399/4/4
f 396/4/4 388/4/4 400/4/4
f 399/4/4 396/4/4 400/4/4
f 400/4/4 388/4/4 401/4/4
f 400/4/4 401/4/4 403/4/4
f 401/4/4 402/4/4 403/4/4
f 403/4/4 402/4/4 404/4/4
f 405/7/4 406/7/4 409/7/4
f 409/7/4 406/7/4 410/7/4
f 407/3/4 408/3/4 412/3/4
f 412/3/4 408/3/4 413/3/4
f 413/3/4 408/3/4 414/3/4
f 410/5/4 411/5/4 416/5/4
f 416/5/4 411/5/4 417/5/4
f 417/6/4 418/6/4 419/6/4
f 416/6/4 417/6/4 419/6/4
f 419/6/4 418/6/4 420/6/4
f 414/1/4 415/1/4 422/1/4
f 413/1/4 414/1/4 422/1/4
f 422/1/4 415/1/4 423/1/4
f 423/1/4 415/1/4 424/1/4
f 419/5/4 420/5/4 425/5/4
f 416/6/4 419/6/4 425/6/4
f 425/5/4 420/5/4 426/5/4
f 422/3/4 423/3/4 427/3/4
f 421/3/4 422/3/4 427/3/4
f 427/3/4 423/3/4 428/3/4
f 416/6/4 425/6/4 430/6/4
f 430/6/4 425/6/4 431/6/4
f 429/7/4 430/7/4 432/7/4
f 432/7/4 430/7/4 433/7/4
f 436/1/4 437/1/4 438/1/4
f 438/1/4 437/1/4 439/1/4
f 434/7/4 435/7/4 440/7/4
f 440/7/4 435/7/4 441/7/4
f 442/3/4 443/3/4 444/3/4
f 444/3/4 443/3/4 445/3/4
f 445/1/4 446/1/4 448/1/4
f 448/1/4 446/1/4 449/1/4
f 447/3/4 448/3/4 450/3/4
f 450/3/4 448/3/4 451/3/4
f 452/3/4 453/3/4 454/3/4
f 454/3/4 453/3/4 455/3/4
f 455/1/4 456/1/4 458/1/4
f 458/1/4 456/1/4 459/1/4
f 457/3/4 458/3/4 460/3/4
f 460/3/4 458/3/4 461/3/4
f 462/1/4 463/1/4 464/1/4
f 464/1/4 463/1/4 465/1/4
f 470/3/5 467/3/5 466/3/5
f 471/3/5 467/3/5 470/3/5
f 472/3/5 469/3/5 468/3/5
f 473/3/5 469/3/5 472/3/5
f 476/3/5 475/3/5 474/3/5
f 477/3/5 475/3/5 476/3/5
f 478/3/5 476/3/5 474/3/5
f 479/1/5 477/1/5 476/1/5
f 479/3/5 476/3/5 478/3/5
f 480/3/5 475/3/5 477/3/5
f 480/1/5 477/1/5 479/1/5
f 481/3/5 475/3/5 480/3/5
f 482/3/5 475/3/5 481/3/5
f 483/1/5 480/1/5 479/1/5
f 483/1/5 481/1/5 480/1/5
f 484/1/5 481/1/5 483/1/5
f 487/3/5 486/3/5 485/3/5
f 488/3/5 486/3/5 487/3/5
f 489/3/5 486/3/5 488/3/5
f 490/3/5 486/3/5 489/3/5
f 492/3/5 489/3/5 488/3/5
f 493/3/5 489/3/5 492/3/5
f 495/3/5 492/3/5 491/3/5
f 495/3/5 494/3/5 493/3/5
f 495/3/5 493/3/5 492/3/5
f 496/3/5 494/3/5 495/3/5
f 499/2/5 498/2/5 497/2/5
f 500/2/5 498/2/5 499/2/5
f 505/3/5 502/3/5 501/3/5
f 506/3/5 502/3/5 505/3/5
f 507/3/5 504/3/5 503/3/5
f 508/3/5 504/3/5 507/3/5
f 512/3/5 510/3/5 509/3/5
f 513/3/5 510/3/5 512/3/5
f 515/3/5 512/3/5 511/3/5
f 516/3/5 512/3/5 515/3/5
f 517/3/5 514/3/5 513/3/5
f 518/3/5 514/3/5 517/3/5
f 521/3/5 520/3/5 519/3/5
f 522/3/5 520/3/5 521/3/5
f 527/3/5 524/3/5 523/3/5
f 528/3/5 524/3/5 527/3/5
f 529/3/5 526/3/5 525/3/5
f 530/3/5 526/3/5 529/3/5
f 534/7/5 532/7/5 531/7/5
f 535/7/5 532/7/5 534/7/5
f 536/7/5 532/7/5 535/7/5
f 537/7/5 532/7/5 536/7/5
f 539/7/5 534/7/5 533/7/5
f 539/7/5 535/7/5 534/7/5
f 540/7/5 535/7/5 539/7/5
f 541/7/5 538/7/5 537/7/5
f 541/7/5 537/7/5 536/7/5
f 542/7/5 538/7/5 541/7/5
f 543/7/5 539/7/5 533/7/5
f 544/7/5 538/7/5 542/7/5
f 545/7/5 543/7/5 533/7/5
f 545/7/5 544/7/5 543/7/5
f 546/7/5 544/7/5 545/7/5
f 547/7/5 538/7/5 544/7/5
f 547/7/5 544/7/5 546/7/5
f 548/7/5 538/7/5 547/7/5
f 549/7/5 547/7/5 546/7/5
f 550/7/5 547/7/5 549/7/5
f 555/4/5 554/4/5 553/4/5
f 556/4/5 552/4/5 551/4/5
f 557/4/5 552/4/5 556/4/5
f 558/4/5 554/4/5 555/4/5
f 559/4/5 554/4/5 558/4/5
f 564/4/5 561/4/5 560/4/5
f 565/4/5 561/4/5 564/4/5
f 566/4/5 563/4/5 562/4/5
f 567/4/5 563/4/5 566/4/5
f 568/3/6 569/3/6 572/3/6
f 572/3/6 569/3/6 573/3/6
f 570/3/6 571/3/6 574/3/6
f 574/3/6 571/3/6 575/3/6
f 573/1/6 574/1/6 576/1/6
f 576/1/6 574/1/6 577/1/6
f 578/3/6 579/3/6 582/3/6
f 582/3/6 579/3/6 583/3/6
f 580/3/6 581/3/6 584/3/6
f 584/3/6 581/3/6 585/3/6
f 583/1/6 584/1/6 586/1/6
f 586/1/6 584/1/6 587/1/6
f 588/1/6 589/1/6 590/1/6
f 590/1/6 589/1/6 591/1/6
f 592/2/6 593/2/6 595/2/6
f 595/2/6 593/2/6 596/2/6
f 594/3/6 595/3/6 599/3/6
f 599/3/6 595/3/6 600/3/6
f 596/3/6 597/3/6 601/3/6
f 601/3/6 597/3/6 602/3/6
f 598/3/6 599/3/6 604/3/6
f 604/3/6 599/3/6 605/3/6
f 602/3/6 603/3/6 606/3/6
f 606/3/6 603/3/6 607/3/6
f 608/1/6 609/1/6 610/1/6
f 610/1/6 609/1/6 611/1/6
f 612/3/6 613/3/6 616/3/6
f 616/3/6 613/3/6 617/3/6
f 614/3/6 615/3/6 618/3/6
f 618/3/6 615/3/6 619/3/6
f 620/3/6 621/3/6 623/3/6
f 623/3/6 621/3/6 624/3/6
f 622/3/6 623/3/6 626/3/6
f 626/3/6 623/3/6 627/3/6
f 624/3/6 625/3/6 628/3/6
f 628/3/6 625/3/6 629/3/6
f 630/1/6 631/1/6 632/1/6
f 632/1/6 631/1/6 633/1/6
f 634/7/6 635/7/6 637/7/6
f 637/7/6 635/7/6 638/7/6
f 638/7/6 635/7/6 639/7/6
f 639/7/6 635/7/6 640/7/6
f 640/7/6 641/7/6 642/7/6
f 642/7/6 641/7/6 643/7/6
f 636/7/6 637/7/6 644/7/6
f 636/7/6 644/7/6 645/7/6
f 645/7/6 644/7/6 646/7/6
f 643/7/6 641/7/6 648/7/6
f 648/7/6 641/7/6 649/7/6
f 646/7/6 647/7/6 650/7/6
f 647/7/6 648/7/6 650/7/6
f 650/7/6 648/7/6 651/7/6
f 652/6/6 653/6/6 656/6/6
f 656/6/6 653/6/6 657/6/6
f 654/6/6 655/6/6 658/6/6
f 658/6/6 655/6/6 659/6/6
f 660/5/6 661/5/6 664/5/6
f 664/5/6 661/5/6 665/5/6
f 662/6/6 663/6/6 666/6/6
f 666/6/6 663/6/6 667/6/6
f 668/6/6 669/6/6 673/6/6
f 669/5/6 670/5/6 674/5/6
f 673/6/6 669/6/6 674/6/6
f 674/5/6 670/5/6 675/5/6
f 671/4/6 672/4/6 678/4/6
f 678/4/6 672/4/6 679/4/6
f 676/4/6 677/4/6 680/4/6
f 680/4/6 677/4/6 681/4/6
f 673/6/6 674/6/6 682/6/6
f 674/6/6 675/6/6 682/6/6
f 682/6/6 675/6/6 683/6/6
f 683/6/6 675/6/6 684/6/6
f 682/6/6 683/6/6 685/6/6
f 683/5/6 684/5/6 686/5/6
f 685/6/6 683/6/6 686/6/6
f 686/5/6 684/5/6 687/5/6
f 688/4/6 689/4/6 693/4/6
f 690/4/6 691/4/6 694/4/6
f 692/4/6 693/4/6 696/4/6
f 693/4/6 689/4/6 697/4/6
f 696/4/6 693/4/6 697/4/6
f 694/4/6 695/4/6 698/4/6
f 690/4/6 694/4/6 698/4/6
f 698/4/6 695/4/6 699/4/6
f 700/4/6 701/4/6 704/4/6
f 704/4/6 701/4/6 705/4/6
f 702/4/6 703/4/6 706/4/6
f 706/4/6 703/4/6 707/4/6
